<svg xmlns="http://www.w3.org/2000/svg" xmlns:xlink="http://www.w3.org/1999/xlink" width="125" zoomAndPan="magnify" viewBox="0 0 93.75 93.749997" height="125" preserveAspectRatio="xMidYMid meet" version="1.0"><defs><clipPath id="2488b0774d"><path d="M 0 0 L 93.5 0 L 93.5 93.5 L 0 93.5 Z M 0 0 " clip-rule="nonzero"/></clipPath><clipPath id="163cfa6ce1"><path d="M 9.492188 9.351562 L 84.289062 9.351562 L 84.289062 84.152344 L 9.492188 84.152344 Z M 9.492188 9.351562 " clip-rule="nonzero"/></clipPath></defs><g clip-path="url(#2488b0774d)"><path fill="#ffffff" d="M 46.75 93.5 C 20.921875 93.5 0 72.433594 0 46.75 C 0 21.066406 20.921875 0 46.75 0 C 72.578125 0 93.5 20.921875 93.5 46.75 C 93.5 72.578125 72.433594 93.5 46.75 93.5 Z M 46.75 2.886719 C 22.507812 2.886719 2.886719 22.507812 2.886719 46.75 C 2.886719 70.992188 22.507812 90.613281 46.75 90.613281 C 70.992188 90.613281 90.613281 70.992188 90.613281 46.75 C 90.613281 22.507812 70.847656 2.886719 46.75 2.886719 Z M 46.75 2.886719 " fill-opacity="1" fill-rule="nonzero"/></g><g clip-path="url(#163cfa6ce1)"><path fill="#ffffff" d="M 50.820312 9.449219 C 50.285156 9.53125 49.804688 9.617188 49.324219 9.757812 C 48.84375 9.898438 48.417969 10.070312 48.050781 10.238281 C 47.683594 10.4375 47.34375 10.636719 47.0625 10.863281 C 46.777344 11.085938 46.609375 11.199219 46.582031 11.199219 C 46.523438 11.199219 46.382812 11.371094 46.101562 11.679688 C 45.84375 11.992188 45.675781 12.160156 45.621094 12.191406 C 45.5625 12.21875 45.449219 12.359375 45.253906 12.613281 C 45.082031 12.867188 44.800781 13.347656 44.460938 14.027344 C 44.09375 14.707031 43.753906 15.609375 43.386719 16.714844 C 43.019531 17.816406 42.679688 19.03125 42.398438 20.386719 C 42.113281 21.746094 41.773438 23.867188 41.351562 26.835938 C 40.953125 29.800781 40.644531 32.261719 40.445312 34.269531 C 40.359375 35.257812 40.25 36.277344 40.136719 37.265625 C 40.105469 37.210938 40.078125 37.152344 40.050781 37.097656 C 39.992188 36.984375 39.964844 36.839844 39.9375 36.671875 C 39.910156 36.503906 39.878906 36.359375 39.824219 36.21875 C 39.769531 36.105469 39.625 35.570312 39.457031 34.664062 C 39.257812 33.730469 39.089844 33.082031 38.976562 32.65625 C 38.863281 32.261719 38.777344 31.949219 38.75 31.78125 C 38.75 31.613281 38.636719 31.246094 38.46875 30.652344 C 38.296875 30.085938 38.210938 29.71875 38.183594 29.546875 C 38.15625 29.378906 38.042969 28.871094 37.816406 27.992188 C 37.589844 27.117188 37.449219 26.609375 37.449219 26.4375 C 37.421875 26.296875 37.195312 25.335938 36.769531 23.582031 C 36.320312 21.832031 36.007812 20.613281 35.78125 19.90625 C 35.554688 19.199219 35.300781 18.464844 34.960938 17.644531 C 34.621094 16.855469 34.339844 16.261719 34.085938 15.921875 C 33.859375 15.554688 33.71875 15.355469 33.71875 15.328125 C 33.71875 15.300781 33.71875 15.300781 33.71875 15.273438 C 33.691406 15.273438 33.691406 15.273438 33.660156 15.273438 C 33.632812 15.273438 33.519531 15.160156 33.351562 14.902344 C 33.179688 14.679688 32.953125 14.394531 32.644531 14.113281 C 32.332031 13.828125 32.164062 13.6875 32.132812 13.6875 C 32.105469 13.6875 32.050781 13.632812 31.964844 13.546875 C 31.878906 13.460938 31.910156 13.460938 31.851562 13.460938 C 31.796875 13.460938 31.683594 13.378906 31.484375 13.234375 C 31.257812 13.09375 30.917969 12.925781 30.464844 12.726562 C 29.984375 12.558594 29.617188 12.445312 29.335938 12.386719 C 29.054688 12.359375 28.714844 12.332031 28.289062 12.332031 C 27.867188 12.332031 27.527344 12.359375 27.214844 12.386719 C 26.90625 12.445312 26.507812 12.558594 26.027344 12.726562 C 25.546875 12.898438 25.179688 13.09375 24.925781 13.234375 C 24.671875 13.40625 24.386719 13.632812 24.019531 13.972656 C 23.652344 14.308594 23.371094 14.59375 23.144531 14.875 C 22.917969 15.160156 22.664062 15.527344 22.410156 16.007812 C 22.128906 16.488281 21.957031 16.882812 21.816406 17.25 C 21.675781 17.617188 21.5625 18.070312 21.421875 18.578125 C 21.308594 19.089844 21.195312 19.652344 21.136719 20.191406 C 21.082031 20.726562 21.054688 21.40625 21.054688 22.226562 C 21.054688 23.015625 21.082031 23.78125 21.136719 24.488281 C 21.195312 25.167969 21.363281 26.210938 21.617188 27.625 C 21.871094 29.011719 22.269531 30.621094 22.75 32.429688 C 23.257812 34.242188 23.539062 35.203125 23.597656 35.285156 C 23.652344 35.371094 23.683594 35.511719 23.710938 35.625 C 23.738281 35.738281 23.765625 35.851562 23.796875 35.910156 C 23.851562 35.964844 24.132812 36.839844 24.699219 38.539062 C 24.980469 39.386719 25.238281 40.234375 25.519531 41.082031 C 25.125 40.828125 24.726562 40.546875 24.332031 40.289062 C 23.539062 39.753906 22.804688 39.300781 22.097656 38.960938 C 21.390625 38.621094 20.996094 38.453125 20.882812 38.425781 C 20.769531 38.398438 20.542969 38.339844 20.234375 38.199219 C 19.894531 38.058594 19.441406 37.945312 18.875 37.832031 C 18.3125 37.71875 17.605469 37.660156 16.8125 37.660156 C 16.019531 37.660156 15.398438 37.71875 15.003906 37.773438 C 14.605469 37.859375 14.269531 37.945312 13.984375 38.058594 C 13.703125 38.171875 13.417969 38.285156 13.109375 38.453125 C 12.796875 38.59375 12.515625 38.765625 12.234375 38.960938 C 11.976562 39.160156 11.667969 39.414062 11.355469 39.726562 C 11.046875 40.035156 10.820312 40.320312 10.707031 40.515625 C 10.59375 40.714844 10.507812 40.828125 10.453125 40.882812 C 10.394531 40.914062 10.28125 41.140625 10.113281 41.507812 C 9.941406 41.875 9.800781 42.242188 9.714844 42.609375 C 9.601562 42.976562 9.546875 43.371094 9.519531 43.796875 C 9.492188 44.21875 9.492188 44.644531 9.546875 45.039062 C 9.601562 45.4375 9.6875 45.917969 9.828125 46.398438 C 10 46.90625 10.113281 47.246094 10.226562 47.472656 C 10.339844 47.699219 10.421875 47.839844 10.453125 47.839844 C 10.480469 47.867188 10.535156 47.921875 10.535156 48.007812 C 10.566406 48.09375 10.789062 48.433594 11.214844 49.054688 C 11.640625 49.648438 11.894531 49.988281 11.949219 50.015625 C 12.007812 50.042969 12.148438 50.214844 12.402344 50.523438 C 12.65625 50.835938 13.195312 51.429688 14.070312 52.332031 C 14.945312 53.210938 15.597656 53.945312 16.019531 54.480469 C 16.445312 55.019531 16.867188 55.640625 17.320312 56.347656 C 17.773438 57.054688 18.367188 58.15625 19.101562 59.628906 C 19.867188 61.125 20.375 62.113281 20.683594 62.597656 C 20.96875 63.105469 21.277344 63.527344 21.5625 63.925781 C 21.84375 64.320312 22.015625 64.546875 22.015625 64.574219 C 22.015625 64.632812 22.042969 64.660156 22.070312 64.660156 C 22.128906 64.6875 22.324219 64.914062 22.664062 65.367188 C 23.03125 65.820312 23.457031 66.300781 23.964844 66.808594 C 24.472656 67.316406 24.785156 67.570312 24.839844 67.597656 C 24.898438 67.597656 25.066406 67.742188 25.320312 67.96875 C 25.574219 68.222656 25.773438 68.335938 25.859375 68.363281 C 25.945312 68.390625 26 68.449219 26.085938 68.503906 C 26.140625 68.589844 26.3125 68.703125 26.566406 68.871094 C 26.820312 69.042969 27.242188 69.265625 27.835938 69.550781 C 28.429688 69.832031 28.6875 70.339844 28.628906 71.046875 C 28.574219 71.785156 28.542969 73.054688 28.488281 74.863281 C 28.460938 76.703125 28.488281 77.691406 28.601562 77.890625 C 28.714844 78.085938 28.855469 78.285156 29.054688 78.511719 C 29.25 78.738281 29.363281 78.824219 29.421875 78.824219 C 29.449219 78.824219 29.5625 78.90625 29.730469 79.078125 C 29.902344 79.246094 30.183594 79.445312 30.550781 79.726562 C 30.917969 79.980469 31.285156 80.179688 31.625 80.378906 C 31.964844 80.546875 32.132812 80.660156 32.164062 80.6875 C 32.191406 80.71875 32.558594 80.914062 33.238281 81.226562 C 33.945312 81.535156 34.59375 81.820312 35.1875 82.074219 C 35.78125 82.328125 36.433594 82.527344 37.109375 82.753906 C 37.789062 82.976562 38.4375 83.148438 39.0625 83.316406 C 39.683594 83.460938 40.417969 83.628906 41.238281 83.769531 C 42.058594 83.910156 42.847656 83.996094 43.585938 84.054688 C 44.320312 84.109375 45.195312 84.136719 46.214844 84.136719 C 47.230469 84.136719 48.417969 84.082031 49.832031 83.941406 C 51.21875 83.796875 52.375 83.65625 53.28125 83.488281 C 54.183594 83.316406 54.695312 83.175781 54.777344 83.148438 C 54.863281 83.121094 55.230469 83.007812 55.910156 82.835938 C 56.589844 82.667969 57.183594 82.496094 57.664062 82.300781 C 58.144531 82.101562 58.59375 81.933594 58.964844 81.761719 C 59.332031 81.566406 59.527344 81.453125 59.558594 81.421875 C 59.585938 81.394531 59.726562 81.308594 59.980469 81.199219 C 60.234375 81.085938 60.433594 80.972656 60.546875 80.800781 C 60.660156 80.632812 60.714844 80.460938 60.742188 80.320312 C 60.773438 80.152344 60.773438 79.613281 60.742188 78.710938 C 60.742188 77.777344 60.660156 76.902344 60.574219 76.050781 C 60.460938 75.175781 60.574219 74.695312 60.855469 74.554688 C 61.140625 74.414062 61.59375 74.15625 62.214844 73.761719 C 62.835938 73.339844 63.148438 73.113281 63.175781 73.082031 C 63.203125 73.054688 63.34375 72.886719 63.65625 72.632812 C 63.96875 72.378906 64.25 72.09375 64.53125 71.753906 C 64.816406 71.414062 64.984375 71.21875 65.011719 71.160156 C 65.042969 71.078125 65.070312 71.046875 65.097656 71.046875 C 65.125 71.046875 65.324219 70.792969 65.664062 70.257812 C 66.03125 69.71875 66.199219 69.410156 66.199219 69.351562 C 66.199219 69.296875 66.226562 69.238281 66.285156 69.210938 C 66.3125 69.183594 66.484375 68.898438 66.765625 68.390625 C 67.046875 67.882812 67.613281 66.75 68.433594 65.027344 C 69.253906 63.300781 69.707031 62.425781 69.761719 62.398438 C 69.789062 62.371094 69.875 62.226562 70.015625 61.972656 C 70.128906 61.71875 70.355469 61.410156 70.667969 61.011719 C 70.976562 60.617188 71.542969 60.023438 72.390625 59.203125 C 73.269531 58.382812 73.71875 57.960938 73.804688 57.902344 C 73.890625 57.875 74.003906 57.761719 74.144531 57.621094 C 74.285156 57.449219 75.132812 56.714844 76.714844 55.386719 C 78.273438 54.058594 79.488281 52.984375 80.277344 52.164062 C 81.097656 51.34375 81.636719 50.722656 81.945312 50.296875 C 82.257812 49.875 82.539062 49.421875 82.824219 48.941406 C 83.105469 48.460938 83.332031 47.980469 83.5 47.5 C 83.671875 47.019531 83.8125 46.625 83.867188 46.285156 C 83.953125 45.945312 83.980469 45.550781 84.011719 45.125 C 84.011719 44.671875 84.011719 44.277344 83.980469 43.882812 C 83.953125 43.484375 83.867188 43.144531 83.757812 42.777344 C 83.644531 42.410156 83.5 42.128906 83.359375 41.875 C 83.21875 41.621094 82.992188 41.335938 82.683594 40.996094 C 82.371094 40.65625 82.117188 40.402344 81.863281 40.261719 C 81.636719 40.121094 81.351562 39.953125 80.984375 39.78125 C 80.617188 39.613281 80.25 39.472656 79.855469 39.386719 C 79.457031 39.300781 79.007812 39.246094 78.554688 39.246094 C 78.074219 39.246094 77.648438 39.273438 77.253906 39.359375 C 76.859375 39.441406 76.320312 39.582031 75.613281 39.839844 C 74.90625 40.09375 74.117188 40.433594 73.269531 40.882812 C 72.417969 41.335938 71.0625 42.101562 69.28125 43.230469 C 68.378906 43.796875 67.472656 44.332031 66.597656 44.898438 C 66.964844 44.25 67.300781 43.597656 67.671875 42.917969 C 68.378906 41.621094 68.859375 40.769531 69.082031 40.433594 C 69.308594 40.0625 69.453125 39.839844 69.453125 39.753906 C 69.480469 39.667969 69.535156 39.582031 69.5625 39.527344 C 69.621094 39.472656 69.675781 39.386719 69.761719 39.214844 C 69.847656 39.046875 69.875 38.960938 69.902344 38.960938 C 69.933594 38.960938 69.960938 38.933594 69.960938 38.847656 C 69.960938 38.765625 70.015625 38.679688 70.101562 38.59375 C 70.1875 38.507812 70.214844 38.425781 70.214844 38.367188 C 70.214844 38.3125 70.242188 38.285156 70.269531 38.253906 C 70.328125 38.226562 70.355469 38.171875 70.382812 38.085938 C 70.414062 37.972656 70.527344 37.804688 70.695312 37.578125 C 70.863281 37.351562 70.949219 37.179688 70.976562 37.097656 C 71.007812 37.011719 71.007812 36.953125 71.0625 36.953125 C 71.089844 36.925781 71.148438 36.871094 71.175781 36.785156 C 71.203125 36.699219 71.289062 36.503906 71.457031 36.277344 C 71.628906 36.050781 71.96875 35.484375 72.449219 34.609375 C 72.957031 33.730469 73.210938 33.25 73.238281 33.136719 C 73.269531 33.054688 73.324219 32.96875 73.351562 32.910156 C 73.410156 32.855469 73.4375 32.769531 73.464844 32.6875 C 73.492188 32.601562 73.578125 32.429688 73.71875 32.175781 C 73.863281 31.921875 73.945312 31.78125 73.945312 31.695312 C 73.945312 31.640625 73.972656 31.554688 74.058594 31.414062 C 74.144531 31.273438 74.199219 31.1875 74.199219 31.074219 C 74.199219 30.960938 74.285156 30.792969 74.398438 30.566406 C 74.511719 30.339844 74.652344 29.914062 74.792969 29.378906 C 74.9375 28.8125 75.019531 28.417969 75.046875 28.191406 C 75.078125 27.964844 75.078125 27.570312 75.046875 27.058594 C 75.019531 26.523438 74.964844 26.097656 74.824219 25.730469 C 74.710938 25.363281 74.566406 25.023438 74.398438 24.714844 C 74.230469 24.402344 74.03125 24.09375 73.804688 23.808594 C 73.578125 23.527344 73.269531 23.1875 72.898438 22.847656 C 72.53125 22.507812 72.195312 22.226562 71.824219 22 C 71.488281 21.773438 71.089844 21.574219 70.609375 21.351562 C 70.128906 21.125 69.648438 21.011719 69.167969 20.980469 C 68.6875 20.925781 68.265625 20.925781 67.867188 20.980469 C 67.472656 21.039062 67.191406 21.09375 66.992188 21.179688 C 66.792969 21.265625 66.511719 21.378906 66.171875 21.546875 C 65.804688 21.746094 65.632812 21.859375 65.605469 21.914062 C 65.578125 21.972656 65.550781 22 65.492188 22 C 65.4375 22 65.296875 22.085938 65.042969 22.28125 C 64.785156 22.480469 64.644531 22.59375 64.644531 22.648438 C 64.617188 22.707031 64.589844 22.734375 64.53125 22.761719 C 64.476562 22.761719 64.304688 22.90625 64.050781 23.160156 C 63.796875 23.414062 63.65625 23.582031 63.65625 23.640625 C 63.65625 23.695312 63.597656 23.722656 63.542969 23.78125 C 63.484375 23.808594 63.375 23.949219 63.175781 24.175781 C 62.976562 24.402344 62.863281 24.542969 62.863281 24.601562 C 62.863281 24.65625 62.78125 24.742188 62.636719 24.882812 C 62.496094 25.023438 62.355469 25.195312 62.242188 25.421875 C 62.128906 25.648438 62.042969 25.730469 62.015625 25.730469 C 61.988281 25.730469 61.960938 25.789062 61.929688 25.871094 C 61.902344 25.957031 61.707031 26.242188 61.394531 26.691406 C 61.054688 27.171875 60.855469 27.457031 60.828125 27.570312 C 60.773438 27.683594 60.742188 27.738281 60.714844 27.738281 C 60.6875 27.738281 60.632812 27.851562 60.519531 28.050781 C 60.40625 28.277344 60.148438 28.699219 59.753906 29.320312 C 59.332031 29.972656 59.019531 30.507812 58.765625 30.988281 C 58.539062 31.46875 58.371094 31.753906 58.285156 31.867188 C 58.199219 31.980469 58.113281 32.121094 58.03125 32.347656 C 57.945312 32.574219 57.890625 32.6875 57.832031 32.714844 C 57.777344 32.742188 57.691406 32.910156 57.550781 33.222656 C 57.40625 33.535156 57.324219 33.703125 57.265625 33.730469 C 57.238281 33.761719 57.183594 33.816406 57.152344 33.957031 C 57.125 34.070312 57.097656 34.128906 57.070312 34.128906 C 57.039062 34.128906 56.757812 34.636719 56.25 35.683594 C 55.996094 36.191406 55.710938 36.730469 55.457031 37.238281 C 55.542969 36.699219 55.628906 36.164062 55.710938 35.597656 C 55.882812 34.496094 55.996094 33.875 56.050781 33.703125 C 56.109375 33.535156 56.164062 33.136719 56.277344 32.542969 C 56.390625 31.949219 56.445312 31.554688 56.503906 31.386719 C 56.558594 31.214844 56.644531 30.707031 56.785156 29.859375 C 56.898438 29.011719 57.011719 28.503906 57.070312 28.304688 C 57.125 28.105469 57.152344 27.910156 57.183594 27.683594 C 57.210938 27.457031 57.238281 27.257812 57.296875 27.03125 C 57.351562 26.835938 57.378906 26.636719 57.40625 26.382812 C 57.4375 26.15625 57.605469 25.023438 57.945312 23.046875 C 58.285156 21.066406 58.480469 19.710938 58.566406 19.03125 C 58.652344 18.351562 58.679688 17.589844 58.652344 16.714844 C 58.625 15.835938 58.59375 15.242188 58.539062 14.902344 C 58.480469 14.566406 58.398438 14.199219 58.257812 13.828125 C 58.144531 13.460938 57.945312 13.066406 57.71875 12.671875 C 57.492188 12.273438 57.210938 11.878906 56.898438 11.511719 C 56.589844 11.144531 56.25 10.863281 55.9375 10.636719 C 55.628906 10.410156 55.257812 10.210938 54.835938 10.042969 C 54.441406 9.871094 54.042969 9.757812 53.703125 9.675781 C 53.367188 9.589844 52.914062 9.53125 52.40625 9.503906 C 51.867188 9.363281 51.332031 9.363281 50.820312 9.449219 Z M 52.121094 11.652344 C 52.742188 11.652344 53.167969 11.710938 53.449219 11.792969 C 53.734375 11.878906 54.015625 12.019531 54.328125 12.191406 C 54.636719 12.359375 54.863281 12.558594 55.089844 12.753906 C 55.316406 12.953125 55.484375 13.207031 55.628906 13.433594 C 55.796875 13.6875 55.910156 13.941406 56.023438 14.199219 C 56.136719 14.480469 56.222656 14.761719 56.304688 15.128906 C 56.390625 15.496094 56.417969 16.035156 56.417969 16.796875 C 56.417969 17.53125 56.390625 18.238281 56.304688 18.863281 C 56.222656 19.484375 56.164062 19.9375 56.109375 20.132812 C 56.050781 20.332031 55.996094 20.726562 55.9375 21.265625 C 55.882812 21.832031 55.824219 22.199219 55.769531 22.367188 C 55.710938 22.535156 55.683594 22.761719 55.65625 23.015625 C 55.628906 23.273438 55.597656 23.5 55.542969 23.667969 C 55.484375 23.835938 55.402344 24.402344 55.257812 25.308594 C 55.117188 26.210938 55.003906 26.976562 54.890625 27.570312 C 54.75 28.191406 54.695312 28.585938 54.664062 28.8125 C 54.636719 29.039062 54.554688 29.546875 54.382812 30.3125 C 54.214844 31.074219 53.988281 32.347656 53.734375 34.042969 C 53.480469 35.765625 53.308594 36.699219 53.253906 36.898438 C 53.195312 37.097656 53.027344 38.253906 52.773438 40.460938 C 52.488281 42.664062 52.347656 43.824219 52.292969 43.964844 C 52.261719 44.105469 52.234375 44.25 52.261719 44.363281 C 52.292969 44.472656 52.320312 44.617188 52.40625 44.785156 C 52.488281 44.957031 52.601562 45.066406 52.714844 45.152344 C 52.828125 45.265625 53.027344 45.324219 53.253906 45.351562 C 53.507812 45.378906 53.675781 45.351562 53.816406 45.292969 C 53.960938 45.238281 54.074219 45.125 54.183594 45.011719 C 54.296875 44.898438 54.355469 44.8125 54.355469 44.757812 C 54.355469 44.699219 54.410156 44.617188 54.496094 44.472656 C 54.609375 44.363281 54.695312 44.164062 54.75 43.9375 C 54.808594 43.710938 54.890625 43.542969 54.976562 43.398438 C 55.0625 43.257812 55.289062 42.808594 55.628906 41.957031 C 55.996094 41.140625 56.191406 40.6875 56.25 40.628906 C 56.304688 40.574219 56.332031 40.488281 56.363281 40.402344 C 56.390625 40.320312 56.417969 40.234375 56.476562 40.175781 C 56.53125 40.121094 56.589844 39.980469 56.671875 39.808594 C 56.757812 39.613281 56.871094 39.359375 57.039062 39.019531 C 57.238281 38.679688 57.324219 38.480469 57.351562 38.398438 C 57.378906 38.3125 57.464844 38.140625 57.632812 37.859375 C 57.804688 37.578125 57.890625 37.378906 57.917969 37.292969 C 57.945312 37.210938 58.199219 36.671875 58.707031 35.683594 C 59.21875 34.691406 59.5 34.183594 59.527344 34.15625 C 59.558594 34.128906 59.753906 33.761719 60.121094 33.082031 C 60.488281 32.375 60.773438 31.867188 60.96875 31.554688 C 61.167969 31.246094 61.308594 31.019531 61.335938 30.90625 C 61.367188 30.820312 61.449219 30.652344 61.621094 30.425781 C 61.789062 30.199219 61.929688 29.972656 62.015625 29.773438 C 62.101562 29.578125 62.1875 29.464844 62.242188 29.40625 C 62.300781 29.351562 62.382812 29.207031 62.523438 28.953125 C 62.636719 28.699219 62.722656 28.558594 62.75 28.558594 C 62.78125 28.558594 62.808594 28.503906 62.863281 28.390625 C 62.890625 28.277344 62.949219 28.191406 63.003906 28.164062 C 63.0625 28.132812 63.089844 28.078125 63.117188 27.992188 C 63.148438 27.910156 63.175781 27.878906 63.230469 27.851562 C 63.289062 27.824219 63.34375 27.738281 63.429688 27.570312 C 63.515625 27.398438 63.542969 27.34375 63.570312 27.34375 C 63.597656 27.34375 63.742188 27.171875 63.96875 26.804688 C 64.191406 26.4375 64.335938 26.269531 64.363281 26.269531 C 64.390625 26.269531 64.53125 26.070312 64.816406 25.730469 C 65.070312 25.363281 65.238281 25.167969 65.296875 25.136719 C 65.351562 25.109375 65.410156 25.054688 65.4375 24.996094 C 65.464844 24.910156 65.691406 24.683594 66.144531 24.261719 C 66.597656 23.867188 67.019531 23.554688 67.386719 23.355469 C 67.785156 23.1875 68.152344 23.074219 68.546875 23.074219 C 68.941406 23.046875 69.28125 23.128906 69.648438 23.242188 C 70.015625 23.355469 70.300781 23.5 70.554688 23.667969 C 70.78125 23.835938 71.0625 24.035156 71.34375 24.316406 C 71.65625 24.574219 71.882812 24.828125 72.050781 25.054688 C 72.222656 25.277344 72.363281 25.503906 72.503906 25.761719 C 72.644531 26.015625 72.730469 26.242188 72.785156 26.496094 C 72.84375 26.75 72.871094 27.003906 72.871094 27.285156 C 72.871094 27.570312 72.84375 27.878906 72.785156 28.191406 C 72.730469 28.503906 72.617188 28.925781 72.417969 29.433594 C 72.25 29.945312 72.023438 30.453125 71.769531 30.933594 C 71.515625 31.414062 71.402344 31.695312 71.402344 31.726562 C 71.402344 31.753906 71.402344 31.78125 71.402344 31.808594 C 71.375 31.808594 71.375 31.808594 71.34375 31.808594 C 71.316406 31.808594 71.261719 31.894531 71.203125 32.0625 C 71.148438 32.234375 71.089844 32.320312 71.0625 32.320312 C 71.035156 32.320312 71.007812 32.347656 71.007812 32.429688 C 71.007812 32.515625 70.949219 32.601562 70.863281 32.714844 C 70.78125 32.800781 70.722656 32.941406 70.636719 33.082031 C 70.582031 33.222656 70.554688 33.308594 70.527344 33.308594 C 70.496094 33.308594 70.441406 33.421875 70.355469 33.617188 C 70.269531 33.84375 70.214844 33.929688 70.1875 33.929688 C 70.15625 33.929688 69.988281 34.210938 69.707031 34.75 C 69.421875 35.285156 69.167969 35.683594 69 35.9375 C 68.828125 36.164062 68.746094 36.332031 68.714844 36.417969 C 68.6875 36.503906 68.6875 36.53125 68.632812 36.558594 C 68.601562 36.585938 68.519531 36.730469 68.40625 36.953125 C 68.292969 37.179688 68.09375 37.578125 67.753906 38.058594 C 67.445312 38.566406 67.273438 38.847656 67.273438 38.90625 C 67.246094 38.988281 67.21875 39.046875 67.132812 39.132812 C 67.046875 39.214844 67.019531 39.300781 66.992188 39.386719 C 66.964844 39.472656 66.878906 39.640625 66.710938 39.867188 C 66.566406 40.09375 66.425781 40.320312 66.339844 40.546875 C 66.226562 40.769531 66.171875 40.914062 66.117188 40.941406 C 66.058594 40.96875 66.003906 41.109375 65.890625 41.363281 C 65.777344 41.621094 65.691406 41.761719 65.664062 41.761719 C 65.632812 41.761719 65.523438 41.988281 65.296875 42.410156 C 65.070312 42.835938 64.957031 43.0625 64.929688 43.089844 C 64.871094 43.117188 64.757812 43.34375 64.53125 43.796875 C 64.304688 44.25 64.164062 44.53125 64.109375 44.585938 C 64.023438 44.671875 63.855469 45.066406 63.515625 45.804688 C 63.203125 46.539062 63.003906 46.960938 63.003906 47.105469 C 62.976562 47.246094 62.949219 47.359375 62.863281 47.472656 C 62.78125 47.585938 62.75 47.753906 62.75 47.980469 C 62.75 48.234375 62.808594 48.433594 62.921875 48.574219 C 63.035156 48.714844 63.175781 48.855469 63.316406 48.941406 C 63.457031 49.027344 63.628906 49.054688 63.855469 49.054688 C 64.078125 49.054688 64.671875 48.742188 65.632812 48.09375 C 66.597656 47.441406 67.078125 47.132812 67.078125 47.105469 C 67.078125 47.074219 67.105469 47.046875 67.191406 47.046875 C 67.273438 47.046875 67.300781 46.992188 67.359375 46.933594 C 67.386719 46.878906 67.585938 46.765625 67.894531 46.59375 C 68.207031 46.425781 68.460938 46.253906 68.660156 46.113281 C 68.859375 45.945312 69.480469 45.578125 70.496094 44.957031 C 71.542969 44.332031 72.082031 44.023438 72.109375 43.964844 C 72.136719 43.910156 72.222656 43.882812 72.304688 43.851562 C 72.390625 43.851562 72.449219 43.824219 72.449219 43.796875 C 72.449219 43.769531 72.617188 43.65625 72.984375 43.429688 C 73.351562 43.203125 73.890625 42.949219 74.566406 42.609375 C 75.246094 42.269531 75.953125 41.988281 76.632812 41.761719 C 77.308594 41.535156 77.875 41.421875 78.300781 41.394531 C 78.722656 41.363281 79.007812 41.394531 79.175781 41.421875 C 79.347656 41.449219 79.628906 41.5625 80.050781 41.789062 C 80.476562 42.015625 80.757812 42.183594 80.929688 42.324219 C 81.070312 42.496094 81.238281 42.695312 81.382812 42.976562 C 81.523438 43.257812 81.636719 43.542969 81.691406 43.851562 C 81.75 44.164062 81.777344 44.445312 81.777344 44.730469 C 81.777344 45.011719 81.75 45.292969 81.71875 45.578125 C 81.691406 45.886719 81.578125 46.253906 81.410156 46.679688 C 81.238281 47.105469 81.042969 47.554688 80.789062 47.953125 C 80.53125 48.347656 80.25 48.800781 79.910156 49.253906 C 79.570312 49.703125 79.148438 50.15625 78.722656 50.582031 C 78.300781 51.003906 77.902344 51.371094 77.566406 51.65625 C 77.226562 51.9375 77.027344 52.109375 77 52.191406 C 76.972656 52.277344 76.914062 52.304688 76.859375 52.304688 C 76.800781 52.332031 76.660156 52.445312 76.433594 52.671875 C 76.207031 52.898438 75.980469 53.097656 75.699219 53.292969 C 75.445312 53.492188 75.246094 53.664062 75.105469 53.804688 C 74.964844 53.945312 74.851562 54.058594 74.792969 54.085938 C 74.710938 54.113281 74.679688 54.171875 74.652344 54.199219 C 74.625 54.257812 74.511719 54.339844 74.34375 54.480469 C 74.171875 54.625 74.058594 54.707031 74.03125 54.765625 C 74.003906 54.820312 73.945312 54.851562 73.917969 54.878906 C 73.890625 54.90625 73.832031 54.933594 73.804688 54.992188 C 73.777344 55.046875 73.351562 55.414062 72.5625 56.09375 C 71.769531 56.773438 71.316406 57.167969 71.203125 57.308594 C 71.117188 57.421875 71.007812 57.535156 70.921875 57.5625 C 70.835938 57.621094 70.722656 57.703125 70.609375 57.875 C 70.496094 58.042969 70.355469 58.15625 70.214844 58.242188 C 70.101562 58.328125 69.988281 58.441406 69.902344 58.554688 C 69.820312 58.695312 69.734375 58.777344 69.648438 58.835938 C 69.5625 58.890625 69.507812 58.949219 69.507812 59.003906 C 69.507812 59.0625 69.453125 59.117188 69.394531 59.148438 C 69.339844 59.175781 69.253906 59.289062 69.167969 59.429688 C 69.082031 59.570312 69.027344 59.65625 69 59.65625 C 68.96875 59.65625 68.941406 59.683594 68.941406 59.742188 C 68.914062 59.796875 68.914062 59.824219 68.886719 59.824219 C 68.859375 59.824219 68.773438 59.9375 68.632812 60.136719 C 68.488281 60.335938 68.292969 60.644531 68.066406 61.039062 C 67.839844 61.4375 67.671875 61.71875 67.613281 61.890625 C 67.558594 62.03125 67.5 62.144531 67.472656 62.171875 C 67.414062 62.199219 67.21875 62.566406 66.878906 63.332031 C 66.539062 64.09375 66.339844 64.460938 66.339844 64.519531 C 66.339844 64.574219 66.03125 65.195312 65.4375 66.328125 C 64.816406 67.488281 64.390625 68.277344 64.136719 68.671875 C 63.882812 69.070312 63.597656 69.492188 63.261719 69.890625 C 62.949219 70.285156 62.636719 70.652344 62.355469 70.90625 C 62.074219 71.160156 61.734375 71.445312 61.308594 71.726562 C 60.886719 72.007812 60.40625 72.292969 59.8125 72.601562 C 59.21875 72.914062 58.59375 73.195312 57.890625 73.453125 C 57.183594 73.707031 56.757812 73.933594 56.589844 74.101562 C 56.445312 74.269531 56.332031 74.382812 56.304688 74.46875 C 56.277344 74.582031 56.277344 74.722656 56.277344 74.949219 C 56.277344 75.175781 56.363281 75.375 56.53125 75.570312 C 56.703125 75.742188 56.898438 75.882812 57.152344 75.910156 C 57.40625 75.9375 57.664062 75.9375 57.945312 75.824219 C 58.085938 75.769531 58.226562 75.742188 58.371094 75.683594 C 58.398438 75.96875 58.425781 76.222656 58.453125 76.503906 C 58.511719 77.042969 58.539062 77.691406 58.539062 78.425781 C 58.539062 79.132812 58.3125 79.613281 57.890625 79.8125 C 57.464844 80.011719 56.925781 80.234375 56.304688 80.433594 C 55.683594 80.632812 55.003906 80.828125 54.269531 81 C 53.535156 81.167969 52.828125 81.339844 52.179688 81.453125 C 51.527344 81.566406 50.679688 81.679688 49.605469 81.761719 C 48.53125 81.847656 47.230469 81.902344 45.734375 81.875 C 44.234375 81.847656 43.1875 81.792969 42.652344 81.734375 C 42.113281 81.648438 41.464844 81.566406 40.730469 81.394531 C 39.964844 81.226562 39.0625 81 37.957031 80.660156 C 36.882812 80.320312 36.0625 80.039062 35.554688 79.785156 C 35.046875 79.53125 34.734375 79.417969 34.679688 79.417969 C 34.621094 79.417969 34.3125 79.273438 33.800781 79.019531 C 33.265625 78.738281 32.871094 78.511719 32.585938 78.34375 C 32.304688 78.171875 32.164062 78.058594 32.105469 78.058594 C 32.078125 78.058594 32.050781 78.058594 32.050781 78.058594 C 32.050781 78.03125 32.050781 78.03125 32.050781 78.003906 C 32.050781 77.976562 31.992188 77.945312 31.910156 77.890625 C 31.824219 77.863281 31.765625 77.804688 31.765625 77.777344 C 31.765625 77.75 31.710938 77.71875 31.625 77.664062 C 31.539062 77.636719 31.371094 77.523438 31.144531 77.324219 C 30.917969 77.15625 30.804688 76.449219 30.804688 75.289062 C 30.804688 74.128906 30.835938 73.054688 30.890625 72.09375 C 30.917969 71.613281 30.949219 71.132812 30.976562 70.652344 C 31.117188 70.679688 31.230469 70.738281 31.371094 70.765625 C 31.625 70.851562 31.851562 70.878906 32.023438 70.878906 C 32.191406 70.878906 32.359375 70.851562 32.503906 70.765625 C 32.644531 70.679688 32.757812 70.597656 32.871094 70.511719 C 32.953125 70.425781 33.039062 70.3125 33.097656 70.199219 C 33.125 70.117188 33.152344 69.945312 33.152344 69.71875 C 33.152344 69.492188 33.125 69.351562 33.097656 69.265625 C 33.066406 69.183594 32.953125 69.070312 32.757812 68.898438 C 32.558594 68.730469 32.191406 68.589844 31.683594 68.503906 C 31.171875 68.417969 30.722656 68.304688 30.382812 68.191406 C 30.042969 68.082031 29.503906 67.824219 28.769531 67.457031 C 28.035156 67.089844 27.355469 66.636719 26.761719 66.15625 C 26.167969 65.675781 25.6875 65.28125 25.351562 64.941406 C 25.011719 64.601562 24.726562 64.292969 24.53125 64.039062 C 24.332031 63.78125 24.21875 63.640625 24.164062 63.613281 C 24.105469 63.585938 23.9375 63.359375 23.597656 62.878906 C 23.257812 62.398438 23.089844 62.113281 23.058594 62.03125 C 23.03125 61.945312 22.976562 61.890625 22.917969 61.832031 C 22.863281 61.804688 22.382812 60.898438 21.449219 59.117188 C 20.515625 57.335938 19.835938 56.09375 19.414062 55.359375 C 18.988281 54.625 18.734375 54.257812 18.707031 54.257812 C 18.679688 54.257812 18.507812 54.03125 18.226562 53.605469 C 17.941406 53.152344 17.71875 52.871094 17.574219 52.757812 C 17.433594 52.617188 17.347656 52.53125 17.347656 52.476562 C 17.320312 52.417969 16.726562 51.769531 15.566406 50.550781 C 14.410156 49.308594 13.589844 48.433594 13.195312 47.867188 C 12.769531 47.300781 12.457031 46.792969 12.261719 46.3125 C 12.035156 45.832031 11.921875 45.324219 11.863281 44.757812 C 11.808594 44.21875 11.808594 43.769531 11.894531 43.429688 C 11.976562 43.089844 12.0625 42.777344 12.203125 42.46875 C 12.34375 42.183594 12.542969 41.875 12.769531 41.589844 C 12.996094 41.308594 13.277344 41.082031 13.5625 40.855469 C 13.84375 40.65625 14.183594 40.488281 14.550781 40.320312 C 14.917969 40.148438 15.257812 40.0625 15.539062 40.007812 C 15.824219 39.953125 16.273438 39.921875 16.898438 39.921875 C 17.519531 39.921875 17.972656 39.953125 18.339844 40.007812 C 18.707031 40.0625 19.101562 40.148438 19.582031 40.289062 C 20.035156 40.433594 20.515625 40.601562 20.996094 40.828125 C 21.449219 41.054688 21.929688 41.28125 22.382812 41.5625 C 22.832031 41.816406 23.3125 42.15625 23.851562 42.550781 C 24.386719 42.949219 24.8125 43.316406 25.152344 43.625 C 25.492188 43.9375 25.660156 44.136719 25.71875 44.136719 C 25.773438 44.164062 25.972656 44.332031 26.339844 44.699219 C 26.707031 45.066406 26.90625 45.292969 27.019531 45.4375 C 27.128906 45.578125 27.242188 45.71875 27.414062 45.832031 C 27.554688 45.972656 27.980469 46.398438 28.628906 47.132812 C 29.28125 47.867188 29.675781 48.375 29.84375 48.660156 C 30.015625 48.941406 30.15625 49.140625 30.269531 49.253906 C 30.410156 49.367188 30.609375 49.421875 30.863281 49.476562 C 31.144531 49.507812 31.316406 49.507812 31.398438 49.476562 C 31.484375 49.449219 31.597656 49.394531 31.710938 49.308594 C 31.824219 49.222656 31.910156 49.140625 31.992188 48.996094 C 32.078125 48.882812 32.105469 48.742188 32.132812 48.574219 C 32.164062 48.402344 32.164062 48.261719 32.132812 48.148438 C 32.105469 48.035156 31.992188 47.808594 31.824219 47.5 C 31.652344 47.1875 31.511719 46.992188 31.484375 46.992188 C 31.429688 46.960938 31.371094 46.90625 31.257812 46.734375 C 31.144531 46.566406 31.058594 46.480469 31.003906 46.425781 C 30.949219 46.367188 30.890625 46.339844 30.890625 46.3125 C 30.890625 46.253906 30.777344 46.140625 30.523438 45.917969 C 30.269531 45.691406 30.015625 45.40625 29.761719 45.066406 C 29.476562 44.730469 29.308594 44.53125 29.195312 44.445312 C 29.082031 44.363281 29.054688 44.25 29.023438 44.050781 C 28.996094 43.851562 28.828125 43.257812 28.460938 42.242188 C 28.09375 41.25 27.808594 40.460938 27.667969 39.867188 C 27.527344 39.273438 27.386719 38.960938 27.355469 38.933594 C 27.300781 38.90625 27.242188 38.652344 27.101562 38.171875 C 26.988281 37.691406 26.875 37.433594 26.820312 37.351562 C 26.761719 37.265625 26.648438 36.953125 26.453125 36.390625 C 26.253906 35.851562 26.167969 35.511719 26.167969 35.371094 C 26.140625 35.257812 26.085938 35.03125 25.945312 34.722656 C 25.800781 34.410156 25.6875 33.988281 25.546875 33.503906 C 25.433594 32.996094 25.320312 32.6875 25.265625 32.601562 C 25.207031 32.515625 25.179688 32.375 25.152344 32.234375 C 25.152344 32.09375 25.09375 31.980469 25.039062 31.867188 C 24.980469 31.78125 24.785156 30.933594 24.386719 29.378906 C 24.019531 27.824219 23.765625 26.550781 23.652344 25.535156 C 23.539062 24.515625 23.457031 23.527344 23.425781 22.535156 C 23.425781 21.519531 23.457031 20.757812 23.511719 20.191406 C 23.570312 19.625 23.652344 19.285156 23.710938 19.144531 C 23.765625 19.003906 23.796875 18.863281 23.824219 18.71875 C 23.851562 18.550781 23.9375 18.269531 24.132812 17.816406 C 24.332031 17.363281 24.53125 16.96875 24.785156 16.601562 C 25.039062 16.234375 25.265625 15.949219 25.433594 15.78125 C 25.632812 15.609375 25.832031 15.414062 26.054688 15.273438 C 26.28125 15.128906 26.507812 14.988281 26.734375 14.902344 C 26.960938 14.789062 27.328125 14.707031 27.835938 14.648438 C 28.347656 14.59375 28.769531 14.566406 29.136719 14.648438 C 29.503906 14.734375 29.902344 14.875 30.382812 15.160156 C 30.835938 15.441406 31.257812 15.753906 31.597656 16.148438 C 31.964844 16.542969 32.277344 17.050781 32.617188 17.703125 C 32.953125 18.351562 33.179688 18.863281 33.351562 19.257812 C 33.492188 19.683594 33.632812 20.132812 33.773438 20.613281 C 33.886719 21.125 34 21.40625 34.058594 21.519531 C 34.113281 21.632812 34.140625 21.773438 34.171875 21.914062 C 34.171875 22.054688 34.226562 22.199219 34.28125 22.3125 C 34.339844 22.425781 34.539062 23.214844 34.875 24.714844 C 35.214844 26.210938 35.894531 28.925781 36.882812 32.855469 C 37.875 36.785156 38.382812 38.847656 38.382812 39.019531 C 38.410156 39.1875 38.496094 39.554688 38.664062 40.09375 C 38.835938 40.65625 39.003906 41.308594 39.175781 42.101562 C 39.34375 42.890625 39.511719 43.570312 39.65625 44.105469 C 39.824219 44.644531 39.910156 45.125 39.992188 45.492188 C 40.078125 45.886719 40.164062 46.171875 40.304688 46.339844 C 40.445312 46.511719 40.585938 46.625 40.730469 46.679688 C 40.871094 46.734375 41.011719 46.765625 41.152344 46.765625 C 41.292969 46.765625 41.433594 46.734375 41.605469 46.652344 C 41.773438 46.566406 41.886719 46.511719 41.972656 46.425781 C 42.058594 46.339844 42.140625 46.226562 42.199219 46.085938 C 42.253906 45.945312 42.285156 45.746094 42.253906 45.519531 C 42.253906 45.265625 42.171875 44.957031 42.085938 44.53125 C 41.972656 44.105469 41.972656 43.796875 42 43.65625 C 42.027344 43.484375 42.085938 42.863281 42.140625 41.789062 C 42.199219 40.714844 42.367188 38.960938 42.621094 36.503906 C 42.878906 34.042969 43.019531 32.714844 43.074219 32.460938 C 43.132812 32.207031 43.160156 31.921875 43.1875 31.582031 C 43.214844 31.246094 43.386719 29.886719 43.695312 27.457031 C 44.007812 25.023438 44.347656 23.015625 44.660156 21.40625 C 44.996094 19.765625 45.222656 18.75 45.394531 18.296875 C 45.5625 17.84375 45.648438 17.5625 45.648438 17.421875 C 45.675781 17.277344 45.789062 16.910156 46.042969 16.316406 C 46.296875 15.722656 46.4375 15.355469 46.496094 15.273438 C 46.550781 15.1875 46.664062 15.015625 46.75 14.789062 C 46.835938 14.566406 46.917969 14.421875 46.976562 14.421875 C 47.003906 14.421875 47.0625 14.339844 47.089844 14.226562 C 47.117188 14.113281 47.230469 13.941406 47.402344 13.746094 C 47.570312 13.546875 47.710938 13.347656 47.882812 13.179688 C 48.050781 13.011719 48.164062 12.898438 48.25 12.867188 C 48.332031 12.839844 48.363281 12.785156 48.390625 12.753906 C 48.417969 12.699219 48.476562 12.671875 48.53125 12.640625 C 48.617188 12.613281 48.730469 12.558594 48.925781 12.417969 C 49.125 12.273438 49.40625 12.132812 49.746094 12.019531 C 50.113281 11.878906 50.453125 11.792969 50.820312 11.710938 C 51.046875 11.652344 51.527344 11.625 52.121094 11.652344 Z M 34.734375 50.070312 C 34.59375 50.15625 34.480469 50.242188 34.367188 50.382812 C 34.253906 50.523438 34.199219 50.722656 34.171875 50.976562 C 34.140625 51.230469 34.140625 51.429688 34.199219 51.570312 C 34.253906 51.710938 34.367188 51.824219 34.507812 51.964844 C 34.679688 52.078125 34.933594 52.21875 35.300781 52.304688 C 35.667969 52.417969 36.0625 52.558594 36.460938 52.757812 C 36.882812 52.957031 37.308594 53.210938 37.761719 53.519531 C 38.210938 53.832031 38.636719 54.199219 39.0625 54.625 C 39.484375 55.046875 39.710938 55.273438 39.710938 55.332031 C 39.710938 55.359375 39.796875 55.472656 39.9375 55.613281 C 40.078125 55.753906 40.277344 56.035156 40.558594 56.433594 C 40.84375 56.828125 41.125 57.394531 41.464844 58.101562 C 41.804688 58.808594 42.027344 59.289062 42.113281 59.542969 C 42.199219 59.796875 42.253906 59.996094 42.253906 60.164062 C 42.253906 60.335938 42.3125 60.476562 42.398438 60.617188 C 42.480469 60.757812 42.621094 60.898438 42.820312 61.011719 C 43.019531 61.125 43.214844 61.183594 43.386719 61.183594 C 43.554688 61.183594 43.726562 61.125 43.894531 61.039062 C 44.066406 60.957031 44.207031 60.816406 44.320312 60.671875 C 44.433594 60.503906 44.488281 60.304688 44.488281 60.050781 C 44.488281 59.796875 44.402344 59.457031 44.261719 58.976562 C 44.121094 58.496094 43.867188 57.902344 43.527344 57.167969 C 43.1875 56.433594 42.90625 55.894531 42.652344 55.5 C 42.398438 55.132812 42.226562 54.878906 42.140625 54.765625 C 42.027344 54.679688 42 54.59375 42 54.539062 C 42 54.511719 41.886719 54.3125 41.632812 54 C 41.378906 53.691406 41.066406 53.351562 40.699219 52.984375 C 40.332031 52.617188 40.050781 52.363281 39.824219 52.21875 C 39.597656 52.078125 39.457031 51.964844 39.371094 51.851562 C 39.285156 51.769531 39.089844 51.625 38.804688 51.457031 C 38.523438 51.289062 38.355469 51.203125 38.355469 51.175781 C 38.355469 51.144531 38.015625 50.976562 37.308594 50.664062 C 36.628906 50.355469 36.148438 50.15625 35.921875 50.101562 C 35.695312 50.042969 35.46875 49.988281 35.273438 49.988281 C 35.046875 49.960938 34.875 49.988281 34.734375 50.070312 Z M 34.734375 50.070312 " fill-opacity="1" fill-rule="nonzero"/></g></svg>