<svg xmlns="http://www.w3.org/2000/svg" xmlns:xlink="http://www.w3.org/1999/xlink" width="125" zoomAndPan="magnify" viewBox="0 0 93.75 93.749997" height="125" preserveAspectRatio="xMidYMid meet" version="1.0"><defs><clipPath id="ba1dd71d73"><path d="M 0 0 L 93.5 0 L 93.5 93.5 L 0 93.5 Z M 0 0 " clip-rule="nonzero"/></clipPath><clipPath id="f4bcd1d502"><path d="M 11.578125 9.351562 L 81.890625 9.351562 L 81.890625 84.152344 L 11.578125 84.152344 Z M 11.578125 9.351562 " clip-rule="nonzero"/></clipPath></defs><g clip-path="url(#ba1dd71d73)"><path fill="#ffffff" d="M 46.75 93.5 C 20.921875 93.5 0 72.433594 0 46.75 C 0 21.066406 20.921875 0 46.75 0 C 72.578125 0 93.5 20.921875 93.5 46.75 C 93.5 72.578125 72.433594 93.5 46.75 93.5 Z M 46.75 2.886719 C 22.507812 2.886719 2.886719 22.507812 2.886719 46.75 C 2.886719 70.992188 22.507812 90.613281 46.75 90.613281 C 70.992188 90.613281 90.613281 70.992188 90.613281 46.75 C 90.613281 22.507812 70.847656 2.886719 46.75 2.886719 Z M 46.75 2.886719 " fill-opacity="1" fill-rule="nonzero"/></g><g clip-path="url(#f4bcd1d502)"><path fill="#ffffff" d="M 38.023438 9.484375 C 37.46875 9.570312 36.96875 9.679688 36.46875 9.820312 C 35.996094 9.957031 35.578125 10.097656 35.246094 10.234375 C 34.914062 10.375 34.46875 10.597656 33.941406 10.875 C 33.414062 11.179688 32.96875 11.429688 32.636719 11.679688 C 32.273438 11.929688 31.855469 12.289062 31.355469 12.761719 C 30.855469 13.234375 30.414062 13.707031 30.050781 14.125 C 29.664062 14.570312 29.328125 15.011719 28.996094 15.484375 C 28.664062 15.957031 28.414062 16.375 28.191406 16.761719 C 27.96875 17.152344 27.855469 17.375 27.828125 17.402344 C 27.800781 17.429688 27.550781 17.902344 27.105469 18.789062 C 26.664062 19.679688 26.246094 20.570312 25.882812 21.484375 C 25.496094 22.402344 25.328125 22.875 25.328125 22.957031 C 25.328125 23.042969 25.273438 23.207031 25.132812 23.484375 C 25.023438 23.761719 24.828125 24.261719 24.578125 25.042969 C 24.328125 25.792969 24.078125 26.597656 23.882812 27.429688 C 23.664062 28.261719 23.46875 29.070312 23.328125 29.792969 C 23.191406 30.511719 23.078125 31.292969 22.96875 32.097656 C 22.855469 32.929688 22.828125 33.570312 22.828125 34.042969 C 22.855469 34.515625 22.191406 34.929688 20.882812 35.292969 C 19.578125 35.652344 18.660156 35.929688 18.132812 36.097656 C 17.605469 36.292969 17.132812 36.457031 16.660156 36.652344 C 16.21875 36.847656 15.746094 37.097656 15.273438 37.402344 C 14.800781 37.707031 14.523438 37.875 14.523438 37.929688 C 14.523438 37.984375 14.410156 38.070312 14.21875 38.207031 C 14.023438 38.347656 13.746094 38.652344 13.355469 39.125 C 12.996094 39.597656 12.71875 40.042969 12.523438 40.429688 C 12.355469 40.820312 12.191406 41.207031 12.078125 41.542969 C 11.96875 41.902344 11.855469 42.320312 11.773438 42.792969 C 11.691406 43.265625 11.632812 43.707031 11.605469 44.125 C 11.578125 44.542969 11.578125 45.265625 11.605469 46.320312 C 11.632812 47.375 11.746094 48.457031 11.910156 49.597656 C 12.078125 50.738281 12.300781 51.707031 12.523438 52.515625 C 12.746094 53.320312 12.996094 54.125 13.273438 54.902344 C 13.550781 55.710938 13.855469 56.460938 14.191406 57.210938 C 14.523438 57.960938 14.882812 58.679688 15.300781 59.429688 C 15.71875 60.152344 16.160156 60.875 16.605469 61.542969 C 17.050781 62.210938 17.496094 62.792969 17.910156 63.320312 C 18.328125 63.820312 18.828125 64.402344 19.414062 65.015625 C 19.996094 65.652344 20.605469 66.238281 21.191406 66.765625 C 21.800781 67.292969 22.078125 67.738281 22.023438 68.070312 C 21.96875 68.402344 21.882812 68.710938 21.800781 68.960938 C 21.691406 69.210938 21.632812 69.460938 21.578125 69.683594 C 21.523438 69.902344 21.382812 70.320312 21.164062 70.960938 C 20.914062 71.597656 20.746094 71.988281 20.664062 72.183594 C 20.578125 72.375 20.441406 72.542969 20.328125 72.652344 C 20.191406 72.765625 20.105469 72.875 20.078125 72.960938 C 20.023438 73.042969 19.996094 73.210938 19.996094 73.433594 C 19.996094 73.652344 20.050781 73.875 20.191406 74.097656 C 20.328125 74.320312 20.578125 74.542969 20.941406 74.792969 C 21.300781 75.042969 21.496094 75.210938 21.523438 75.265625 C 21.550781 75.320312 21.664062 75.402344 21.800781 75.515625 C 21.96875 75.625 22.105469 75.738281 22.191406 75.820312 C 22.273438 75.933594 22.746094 76.265625 23.632812 76.875 C 24.523438 77.460938 25.328125 77.960938 26.023438 78.320312 C 26.71875 78.683594 27.273438 78.933594 27.664062 79.097656 C 28.050781 79.265625 28.328125 79.375 28.46875 79.460938 C 28.605469 79.542969 29.355469 79.847656 30.746094 80.347656 C 32.105469 80.847656 33.71875 81.347656 35.550781 81.875 C 37.355469 82.40625 39.078125 82.820312 40.636719 83.125 C 42.21875 83.460938 43.550781 83.683594 44.691406 83.820312 C 45.828125 83.960938 46.664062 84.042969 47.164062 84.070312 C 47.691406 84.097656 48.46875 84.097656 49.550781 84.070312 C 50.609375 84.042969 51.609375 83.960938 52.523438 83.820312 C 53.441406 83.683594 54.386719 83.460938 55.359375 83.183594 C 56.332031 82.90625 57.023438 82.683594 57.414062 82.488281 C 57.832031 82.320312 58.109375 82.15625 58.300781 82.015625 C 58.46875 81.875 58.636719 81.710938 58.746094 81.542969 C 58.859375 81.375 58.96875 81.125 59.050781 80.820312 C 59.136719 80.515625 59.273438 79.597656 59.441406 78.070312 C 59.609375 76.570312 59.71875 75.542969 59.746094 75.015625 C 59.773438 74.488281 60.109375 74.042969 60.800781 73.683594 C 61.46875 73.320312 61.800781 73.125 61.800781 73.097656 C 61.800781 73.070312 62.109375 72.847656 62.691406 72.460938 C 63.273438 72.070312 63.859375 71.625 64.386719 71.183594 C 64.914062 70.738281 65.582031 70.125 66.359375 69.292969 C 67.136719 68.488281 67.859375 67.652344 68.496094 66.765625 C 69.164062 65.902344 69.664062 65.097656 70.054688 64.375 C 70.441406 63.652344 70.832031 62.792969 71.191406 61.820312 C 71.554688 60.847656 71.773438 60.179688 71.886719 59.820312 C 71.96875 59.460938 72.082031 59.042969 72.164062 58.570312 C 72.246094 58.070312 72.304688 57.710938 72.304688 57.429688 C 72.304688 57.179688 72.273438 57.015625 72.246094 56.960938 C 72.21875 56.902344 72.359375 56.765625 72.664062 56.515625 C 72.96875 56.265625 73.164062 56.097656 73.21875 56.015625 C 73.304688 55.902344 73.359375 55.847656 73.414062 55.847656 C 73.46875 55.820312 73.832031 55.515625 74.46875 54.875 C 75.109375 54.238281 75.609375 53.679688 75.996094 53.238281 C 76.386719 52.792969 76.582031 52.570312 76.636719 52.542969 C 76.664062 52.515625 76.71875 52.488281 76.773438 52.402344 C 76.804688 52.320312 76.859375 52.265625 76.886719 52.265625 C 76.914062 52.265625 77.332031 51.738281 78.136719 50.707031 C 78.941406 49.679688 79.496094 48.902344 79.859375 48.320312 C 80.21875 47.738281 80.414062 47.375 80.46875 47.265625 C 80.527344 47.152344 80.554688 47.070312 80.582031 47.070312 C 80.609375 47.070312 80.746094 46.738281 81.027344 46.097656 C 81.304688 45.429688 81.496094 44.820312 81.636719 44.238281 C 81.777344 43.652344 81.859375 43.207031 81.886719 42.929688 C 81.914062 42.652344 81.914062 42.152344 81.886719 41.402344 C 81.859375 40.652344 81.804688 40.097656 81.71875 39.765625 C 81.636719 39.402344 81.496094 39.015625 81.277344 38.542969 C 81.054688 38.097656 80.859375 37.707031 80.636719 37.402344 C 80.414062 37.097656 80.164062 36.792969 79.832031 36.484375 C 79.527344 36.179688 79.164062 35.902344 78.746094 35.679688 C 78.359375 35.457031 77.96875 35.265625 77.609375 35.152344 C 77.246094 35.015625 76.914062 34.929688 76.582031 34.847656 C 76.246094 34.765625 75.773438 34.734375 75.109375 34.707031 C 74.773438 34.707031 74.441406 34.679688 74.136719 34.679688 C 74.191406 34.457031 74.21875 34.265625 74.246094 34.042969 C 74.332031 33.625 74.386719 33.070312 74.414062 32.375 C 74.441406 31.679688 74.441406 31.125 74.414062 30.734375 C 74.386719 30.347656 74.332031 29.902344 74.21875 29.457031 C 74.136719 29.011719 73.996094 28.597656 73.859375 28.207031 C 73.71875 27.820312 73.523438 27.402344 73.273438 26.957031 C 73.023438 26.511719 72.886719 26.292969 72.859375 26.292969 C 72.832031 26.292969 72.746094 26.207031 72.636719 25.984375 C 72.523438 25.792969 72.246094 25.511719 71.832031 25.125 C 71.414062 24.734375 71.082031 24.484375 70.804688 24.320312 C 70.554688 24.152344 70.164062 23.957031 69.691406 23.761719 C 69.21875 23.570312 68.609375 23.375 67.941406 23.234375 C 67.273438 23.097656 66.664062 23.011719 66.164062 23.011719 C 65.636719 23.011719 65.164062 23.042969 64.71875 23.097656 C 64.273438 23.152344 63.886719 23.207031 63.523438 23.320312 C 63.359375 23.375 63.164062 23.402344 62.996094 23.429688 C 62.96875 23.179688 62.914062 22.929688 62.886719 22.679688 C 62.800781 22.179688 62.746094 21.761719 62.664062 21.484375 C 62.582031 21.179688 62.46875 20.847656 62.332031 20.511719 C 62.191406 20.179688 62.050781 19.847656 61.886719 19.570312 C 61.71875 19.289062 61.441406 18.875 61.023438 18.375 C 60.609375 17.847656 60.273438 17.457031 60.023438 17.234375 C 59.773438 17.011719 59.46875 16.789062 59.136719 16.570312 C 58.800781 16.347656 58.441406 16.152344 58.082031 15.984375 C 57.71875 15.820312 57.300781 15.679688 56.773438 15.539062 C 56.246094 15.402344 55.636719 15.320312 54.941406 15.261719 C 54.246094 15.234375 53.691406 15.234375 53.246094 15.261719 C 52.800781 15.320312 52.359375 15.375 51.886719 15.484375 C 51.414062 15.597656 50.886719 15.734375 50.273438 15.929688 C 49.664062 16.125 49.246094 16.289062 48.96875 16.429688 C 48.828125 16.511719 48.691406 16.570312 48.550781 16.652344 C 48.46875 16.429688 48.414062 16.179688 48.328125 15.957031 C 48.191406 15.484375 47.96875 14.984375 47.691406 14.429688 C 47.414062 13.875 47.136719 13.402344 46.828125 13.011719 C 46.523438 12.625 46.164062 12.207031 45.691406 11.789062 C 45.21875 11.375 44.746094 11.011719 44.21875 10.734375 C 43.691406 10.457031 43.191406 10.207031 42.664062 10.039062 C 42.164062 9.847656 41.636719 9.734375 41.105469 9.652344 C 40.578125 9.570312 40.050781 9.539062 39.523438 9.539062 C 38.996094 9.539062 38.578125 9.402344 38.023438 9.484375 Z M 40.21875 11.761719 C 40.773438 11.820312 41.246094 11.875 41.550781 11.957031 C 41.886719 12.039062 42.300781 12.207031 42.855469 12.484375 C 43.414062 12.761719 43.859375 13.070312 44.191406 13.375 C 44.523438 13.679688 44.828125 14.011719 45.078125 14.375 C 45.328125 14.734375 45.578125 15.152344 45.800781 15.597656 C 46.023438 16.039062 46.191406 16.539062 46.328125 17.125 C 46.46875 17.707031 46.550781 18.320312 46.609375 19.039062 C 46.636719 19.734375 46.636719 20.402344 46.609375 20.984375 C 46.550781 21.570312 46.441406 22.375 46.273438 23.375 C 46.109375 24.375 45.859375 25.320312 45.578125 26.234375 C 45.300781 27.152344 44.941406 28.125 44.523438 29.179688 C 44.109375 30.234375 43.691406 31.152344 43.273438 31.984375 C 42.855469 32.820312 42.636719 33.320312 42.578125 33.457031 C 42.550781 33.597656 42.273438 34.125 41.773438 35.042969 C 41.273438 35.957031 40.828125 36.679688 40.414062 37.234375 C 39.996094 37.765625 39.605469 38.179688 39.246094 38.484375 C 38.886719 38.765625 38.664062 38.929688 38.605469 38.929688 C 38.550781 38.929688 38.496094 38.734375 38.386719 38.320312 C 38.300781 37.929688 38.105469 37.429688 37.828125 36.847656 C 37.550781 36.265625 37.21875 35.792969 36.914062 35.429688 C 36.578125 35.070312 36.21875 34.734375 35.773438 34.457031 C 35.328125 34.179688 34.96875 33.984375 34.691406 33.902344 C 34.414062 33.792969 34.050781 33.707031 33.578125 33.625 C 33.105469 33.542969 32.578125 33.484375 31.941406 33.484375 C 31.300781 33.457031 30.46875 33.515625 29.46875 33.597656 C 28.46875 33.679688 27.496094 33.820312 26.578125 33.984375 C 26.105469 34.070312 25.664062 34.152344 25.191406 34.234375 C 25.191406 34.070312 25.191406 33.902344 25.191406 33.734375 C 25.191406 33.402344 25.246094 32.902344 25.328125 32.207031 C 25.414062 31.511719 25.523438 30.820312 25.664062 30.125 C 25.800781 29.402344 26.050781 28.402344 26.441406 27.125 C 26.828125 25.847656 27.273438 24.511719 27.800781 23.152344 C 28.355469 21.792969 28.828125 20.679688 29.273438 19.820312 C 29.71875 18.957031 30.050781 18.320312 30.328125 17.875 C 30.605469 17.457031 30.96875 16.902344 31.46875 16.234375 C 31.96875 15.597656 32.386719 15.097656 32.71875 14.761719 C 33.050781 14.429688 33.441406 14.097656 33.886719 13.761719 C 34.328125 13.429688 34.800781 13.125 35.246094 12.902344 C 35.71875 12.652344 36.164062 12.457031 36.550781 12.320312 C 36.941406 12.179688 37.300781 12.070312 37.664062 11.984375 C 38.023438 11.902344 38.386719 11.847656 38.800781 11.789062 C 39.164062 11.707031 39.636719 11.707031 40.21875 11.761719 Z M 54.359375 17.484375 C 54.71875 17.484375 55.078125 17.511719 55.414062 17.539062 C 55.746094 17.570312 56.050781 17.652344 56.359375 17.734375 C 56.664062 17.820312 56.941406 17.929688 57.246094 18.097656 C 57.550781 18.261719 57.832031 18.429688 58.109375 18.625 C 58.386719 18.820312 58.636719 19.039062 58.886719 19.289062 C 59.109375 19.542969 59.386719 19.929688 59.71875 20.484375 C 60.023438 21.042969 60.246094 21.484375 60.359375 21.792969 C 60.441406 22.097656 60.523438 22.484375 60.609375 22.929688 C 60.691406 23.375 60.691406 24.042969 60.664062 24.902344 C 60.636719 25.761719 60.523438 26.679688 60.359375 27.707031 C 60.164062 28.707031 59.941406 29.734375 59.664062 30.734375 C 59.386719 31.734375 58.996094 32.984375 58.496094 34.402344 C 57.996094 35.820312 57.46875 37.125 56.914062 38.347656 C 56.359375 39.570312 55.914062 40.429688 55.609375 40.984375 C 55.300781 41.542969 55.023438 41.929688 54.859375 42.179688 C 54.664062 42.402344 54.578125 42.542969 54.578125 42.597656 C 54.578125 42.625 54.414062 42.875 54.109375 43.292969 C 53.773438 43.707031 53.414062 44.125 52.996094 44.542969 C 52.578125 44.957031 52.164062 45.320312 51.746094 45.625 C 51.328125 45.929688 50.996094 46.152344 50.773438 46.265625 C 50.523438 46.375 50.136719 46.542969 49.609375 46.707031 C 49.078125 46.875 48.550781 46.957031 48.109375 47.015625 C 47.664062 47.070312 47.273438 47.042969 46.96875 47.015625 C 46.664062 46.988281 46.246094 46.902344 45.691406 46.765625 C 45.136719 46.625 44.46875 46.402344 43.746094 46.070312 C 43.023438 45.765625 42.636719 45.570312 42.605469 45.515625 C 42.578125 45.457031 42.496094 45.402344 42.386719 45.375 C 42.273438 45.347656 42.050781 45.207031 41.746094 44.957031 C 41.414062 44.738281 41.136719 44.457031 40.886719 44.207031 C 40.605469 43.957031 40.386719 43.679688 40.21875 43.402344 C 40.050781 43.125 39.914062 42.875 39.828125 42.652344 C 39.746094 42.429688 39.71875 42.097656 39.71875 41.679688 C 39.71875 41.234375 39.828125 40.957031 40.078125 40.820312 C 40.328125 40.679688 40.441406 40.597656 40.441406 40.570312 C 40.441406 40.542969 40.46875 40.515625 40.523438 40.515625 C 40.578125 40.484375 40.746094 40.375 40.996094 40.179688 C 41.246094 39.957031 41.550781 39.652344 41.941406 39.234375 C 42.328125 38.820312 42.605469 38.457031 42.773438 38.179688 C 42.941406 37.902344 43.246094 37.402344 43.664062 36.679688 C 44.078125 35.957031 44.664062 34.792969 45.386719 33.234375 C 46.136719 31.679688 46.636719 30.511719 46.941406 29.792969 C 47.246094 29.042969 47.386719 28.570312 47.441406 28.402344 C 47.46875 28.207031 47.523438 28.125 47.550781 28.097656 C 47.578125 28.097656 47.746094 27.511719 48.078125 26.347656 C 48.386719 25.179688 48.636719 24.125 48.800781 23.125 C 48.941406 22.125 49.023438 21.207031 49.050781 20.375 C 49.078125 19.542969 49.273438 19.011719 49.636719 18.789062 C 49.996094 18.570312 50.386719 18.375 50.746094 18.234375 C 51.136719 18.097656 51.578125 17.957031 52.109375 17.847656 C 52.636719 17.707031 53.078125 17.625 53.414062 17.597656 C 53.636719 17.511719 53.996094 17.484375 54.359375 17.484375 Z M 66.136719 25.320312 C 66.664062 25.320312 67.023438 25.347656 67.273438 25.375 C 67.523438 25.429688 67.804688 25.484375 68.136719 25.597656 C 68.46875 25.679688 68.746094 25.820312 69.023438 25.929688 C 69.273438 26.042969 69.554688 26.207031 69.832031 26.402344 C 70.109375 26.597656 70.332031 26.761719 70.46875 26.929688 C 70.636719 27.070312 70.773438 27.261719 70.941406 27.484375 C 71.109375 27.707031 71.273438 27.957031 71.414062 28.234375 C 71.554688 28.511719 71.691406 28.929688 71.859375 29.511719 C 72.023438 30.097656 72.082031 30.792969 72.082031 31.652344 C 72.082031 32.515625 71.996094 33.320312 71.859375 34.042969 C 71.71875 34.765625 71.523438 35.542969 71.304688 36.320312 C 71.054688 37.097656 70.71875 38.042969 70.246094 39.125 C 69.773438 40.234375 69.246094 41.347656 68.609375 42.484375 C 67.96875 43.625 67.414062 44.542969 66.941406 45.207031 C 66.46875 45.875 66.21875 46.207031 66.164062 46.238281 C 66.109375 46.265625 65.941406 46.488281 65.609375 46.929688 C 65.273438 47.375 64.746094 47.957031 63.996094 48.707031 C 63.246094 49.429688 62.773438 49.902344 62.496094 50.097656 C 62.246094 50.292969 62.109375 50.402344 62.082031 50.457031 C 62.082031 50.515625 61.859375 50.652344 61.441406 50.929688 C 61.050781 51.207031 60.664062 51.429688 60.359375 51.597656 C 60.050781 51.765625 59.71875 51.902344 59.414062 52.015625 C 59.109375 52.125 58.691406 52.207031 58.191406 52.265625 C 57.691406 52.320312 57.246094 52.320312 56.859375 52.265625 C 56.496094 52.207031 56.136719 52.125 55.832031 52.042969 C 55.523438 51.929688 55.109375 51.738281 54.550781 51.429688 C 54.023438 51.125 53.578125 50.820312 53.246094 50.488281 C 52.914062 50.152344 52.746094 49.988281 52.746094 49.957031 C 52.746094 49.902344 52.691406 49.847656 52.609375 49.738281 C 52.496094 49.625 52.414062 49.515625 52.328125 49.347656 C 52.246094 49.179688 52.21875 48.929688 52.21875 48.597656 C 52.21875 48.265625 52.386719 47.988281 52.746094 47.738281 C 53.109375 47.515625 53.414062 47.292969 53.664062 47.070312 C 53.914062 46.847656 54.273438 46.515625 54.773438 46.015625 C 55.273438 45.515625 55.664062 45.070312 55.941406 44.652344 C 56.21875 44.238281 56.386719 44.015625 56.414062 44.015625 C 56.441406 44.015625 56.550781 43.847656 56.71875 43.542969 C 56.914062 43.234375 57.023438 43.042969 57.082031 43.015625 C 57.136719 42.957031 57.414062 42.484375 57.914062 41.570312 C 58.414062 40.652344 58.664062 40.179688 58.664062 40.125 C 58.664062 40.070312 58.773438 39.820312 58.996094 39.402344 C 59.21875 38.984375 59.386719 38.570312 59.523438 38.179688 C 59.664062 37.792969 59.773438 37.542969 59.859375 37.402344 C 59.941406 37.265625 59.996094 37.152344 59.996094 37.042969 C 60.023438 36.957031 60.023438 36.875 60.082031 36.820312 C 60.109375 36.792969 60.164062 36.707031 60.164062 36.597656 C 60.191406 36.515625 60.21875 36.429688 60.246094 36.375 C 60.300781 36.347656 60.496094 35.707031 60.914062 34.484375 C 61.300781 33.292969 61.691406 32.042969 62.023438 30.734375 C 62.359375 29.457031 62.582031 28.429688 62.71875 27.652344 C 62.859375 26.875 62.914062 26.429688 62.914062 26.234375 C 62.914062 26.042969 63.050781 25.902344 63.332031 25.761719 C 63.609375 25.625 63.996094 25.511719 64.523438 25.429688 C 65.082031 25.347656 65.609375 25.320312 66.136719 25.320312 Z M 31.46875 35.765625 C 32.21875 35.765625 32.71875 35.792969 32.996094 35.820312 C 33.273438 35.847656 33.550781 35.929688 33.828125 36.042969 C 34.105469 36.152344 34.355469 36.265625 34.578125 36.402344 C 34.800781 36.542969 35.023438 36.734375 35.21875 36.929688 C 35.414062 37.152344 35.605469 37.457031 35.800781 37.875 C 35.996094 38.292969 36.136719 38.652344 36.21875 39.042969 C 36.300781 39.402344 36.328125 39.902344 36.328125 40.484375 C 36.328125 41.070312 36.273438 41.570312 36.191406 41.957031 C 36.105469 42.347656 35.96875 42.679688 35.855469 42.957031 C 35.71875 43.234375 35.550781 43.515625 35.328125 43.847656 C 35.105469 44.152344 34.828125 44.488281 34.550781 44.792969 C 34.246094 45.097656 33.746094 45.570312 33.023438 46.125 C 32.328125 46.707031 31.941406 46.988281 31.914062 46.988281 C 31.886719 46.988281 31.855469 46.988281 31.855469 46.988281 C 31.855469 47.015625 31.855469 47.015625 31.855469 47.015625 C 31.855469 47.042969 31.523438 47.265625 30.882812 47.707031 C 30.246094 48.152344 29.632812 48.488281 29.105469 48.765625 C 28.578125 49.042969 28.21875 49.265625 28.050781 49.429688 C 27.882812 49.597656 27.773438 49.738281 27.746094 49.875 C 27.71875 50.015625 27.691406 50.238281 27.71875 50.542969 C 27.746094 50.847656 27.828125 51.152344 27.941406 51.429688 C 28.050781 51.738281 28.191406 51.957031 28.328125 52.152344 C 28.46875 52.320312 28.605469 52.457031 28.71875 52.515625 C 28.828125 52.570312 28.96875 52.597656 29.164062 52.625 C 29.355469 52.652344 29.578125 52.597656 29.800781 52.515625 C 30.023438 52.402344 30.191406 52.292969 30.273438 52.152344 C 30.355469 52.015625 30.414062 51.902344 30.441406 51.820312 C 30.441406 51.738281 30.46875 51.625 30.46875 51.457031 C 30.46875 51.292969 30.441406 51.152344 30.382812 51.015625 C 30.328125 50.847656 30.523438 50.652344 30.996094 50.402344 C 31.46875 50.152344 31.691406 50.015625 31.691406 49.988281 C 31.691406 49.957031 31.773438 49.875 31.941406 49.765625 C 32.105469 49.652344 32.246094 49.570312 32.300781 49.542969 C 32.386719 49.515625 32.441406 49.488281 32.441406 49.457031 C 32.441406 49.429688 32.523438 49.375 32.691406 49.292969 C 32.855469 49.207031 33.300781 48.902344 34.050781 48.347656 C 34.773438 47.792969 35.46875 47.207031 36.078125 46.570312 C 36.691406 45.929688 37.164062 45.375 37.46875 44.875 C 37.773438 44.375 37.941406 44.125 37.96875 44.125 C 37.996094 44.125 38.105469 44.292969 38.300781 44.625 C 38.496094 44.957031 38.828125 45.347656 39.273438 45.820312 C 39.71875 46.265625 40.191406 46.679688 40.636719 46.988281 C 41.078125 47.320312 41.605469 47.625 42.191406 47.902344 C 42.773438 48.179688 43.386719 48.429688 43.996094 48.652344 C 44.609375 48.875 45.21875 49.015625 45.800781 49.125 C 46.386719 49.238281 47.023438 49.292969 47.691406 49.292969 C 48.359375 49.292969 48.914062 49.265625 49.300781 49.179688 C 49.496094 49.152344 49.691406 49.097656 49.886719 49.070312 C 49.886719 49.152344 49.914062 49.238281 49.914062 49.347656 C 49.941406 49.515625 50.050781 49.847656 50.273438 50.292969 C 50.496094 50.738281 50.71875 51.097656 50.914062 51.375 C 51.109375 51.652344 51.414062 51.929688 51.746094 52.265625 C 52.078125 52.597656 52.273438 52.765625 52.328125 52.765625 C 52.386719 52.765625 52.414062 52.792969 52.414062 52.820312 C 52.441406 52.875 52.496094 52.902344 52.578125 52.929688 C 52.664062 52.988281 52.746094 53.015625 52.800781 53.070312 C 52.828125 53.125 53.023438 53.238281 53.328125 53.429688 C 53.636719 53.625 54.078125 53.820312 54.636719 54.042969 C 55.21875 54.265625 55.773438 54.429688 56.300781 54.515625 C 56.859375 54.597656 57.332031 54.652344 57.773438 54.652344 C 58.21875 54.652344 58.496094 54.625 58.636719 54.625 C 58.773438 54.597656 58.914062 54.738281 59.050781 55.070312 C 59.191406 55.402344 59.441406 55.792969 59.773438 56.265625 C 60.109375 56.738281 60.414062 57.097656 60.71875 57.402344 C 61.023438 57.710938 61.386719 57.988281 61.859375 58.265625 C 62.300781 58.542969 62.773438 58.765625 63.300781 58.960938 C 63.800781 59.125 64.191406 59.265625 64.414062 59.292969 C 64.664062 59.347656 65.023438 59.375 65.523438 59.375 C 66.023438 59.375 66.609375 59.347656 67.273438 59.238281 C 67.941406 59.125 68.523438 58.960938 69.054688 58.738281 C 69.304688 58.625 69.554688 58.515625 69.832031 58.402344 C 69.804688 58.597656 69.746094 58.765625 69.71875 58.960938 C 69.636719 59.347656 69.496094 59.820312 69.273438 60.429688 C 69.054688 61.042969 68.859375 61.570312 68.664062 62.015625 C 68.46875 62.460938 68.273438 62.875 68.023438 63.292969 C 67.804688 63.679688 67.554688 64.097656 67.246094 64.542969 C 66.941406 64.960938 66.636719 65.402344 66.300781 65.820312 C 65.96875 66.238281 65.414062 66.847656 64.664062 67.625 C 63.886719 68.433594 63.164062 69.097656 62.441406 69.683594 C 61.71875 70.265625 61.050781 70.738281 60.441406 71.125 C 59.832031 71.515625 59.164062 71.875 58.414062 72.210938 C 57.664062 72.542969 56.832031 72.875 55.859375 73.210938 C 54.886719 73.542969 54.328125 73.765625 54.191406 73.847656 C 54.050781 73.933594 53.941406 74.042969 53.886719 74.152344 C 53.800781 74.238281 53.773438 74.402344 53.71875 74.597656 C 53.664062 74.792969 53.664062 74.960938 53.71875 75.125 C 53.746094 75.292969 53.828125 75.433594 53.96875 75.570312 C 54.109375 75.710938 54.21875 75.820312 54.386719 75.902344 C 54.550781 75.988281 54.746094 75.988281 55.023438 75.960938 C 55.300781 75.933594 55.773438 75.792969 56.46875 75.515625 C 56.832031 75.375 57.164062 75.265625 57.523438 75.125 C 57.441406 75.765625 57.386719 76.402344 57.300781 77.070312 C 57.164062 78.347656 57.050781 79.183594 56.996094 79.570312 C 56.941406 79.960938 56.609375 80.238281 56.082031 80.433594 C 55.550781 80.625 54.996094 80.820312 54.46875 80.960938 C 53.941406 81.097656 53.273438 81.238281 52.496094 81.347656 C 51.691406 81.488281 51.078125 81.542969 50.664062 81.570312 C 50.246094 81.597656 49.664062 81.597656 48.996094 81.597656 C 48.328125 81.597656 47.523438 81.570312 46.609375 81.488281 C 45.691406 81.40625 44.578125 81.265625 43.21875 81.042969 C 41.855469 80.820312 40.523438 80.542969 39.191406 80.238281 C 37.855469 79.933594 36.746094 79.625 35.773438 79.347656 C 34.828125 79.070312 33.855469 78.765625 32.914062 78.460938 C 31.96875 78.125 31.132812 77.847656 30.441406 77.570312 C 29.746094 77.292969 29.050781 76.988281 28.355469 76.683594 C 27.664062 76.375 27.078125 76.070312 26.632812 75.820312 C 26.191406 75.570312 25.632812 75.210938 24.996094 74.765625 C 24.355469 74.320312 23.828125 73.960938 23.46875 73.625 C 23.105469 73.320312 23.078125 72.765625 23.414062 71.960938 C 23.746094 71.152344 23.96875 70.460938 24.105469 69.902344 C 24.191406 69.625 24.273438 69.347656 24.328125 69.070312 C 24.578125 69.238281 24.855469 69.402344 25.105469 69.570312 C 25.632812 69.902344 25.914062 70.070312 25.996094 70.070312 C 26.050781 70.070312 26.164062 70.125 26.355469 70.210938 C 26.523438 70.320312 26.71875 70.347656 26.882812 70.347656 C 27.050781 70.347656 27.21875 70.320312 27.355469 70.265625 C 27.496094 70.210938 27.632812 70.097656 27.746094 69.960938 C 27.855469 69.820312 27.96875 69.652344 28.023438 69.515625 C 28.078125 69.347656 28.105469 69.210938 28.078125 69.070312 C 28.078125 68.933594 27.996094 68.765625 27.855469 68.570312 C 27.746094 68.347656 27.496094 68.183594 27.164062 68.042969 C 26.828125 67.875 26.523438 67.738281 26.273438 67.570312 C 25.996094 67.402344 25.550781 67.070312 24.941406 66.625 C 24.328125 66.179688 23.550781 65.488281 22.605469 64.597656 C 21.664062 63.738281 20.996094 63.070312 20.605469 62.597656 C 20.191406 62.152344 19.773438 61.597656 19.273438 60.960938 C 18.773438 60.320312 18.273438 59.542969 17.746094 58.652344 C 17.191406 57.738281 16.773438 56.960938 16.46875 56.265625 C 16.160156 55.597656 15.855469 54.847656 15.578125 54.015625 C 15.300781 53.207031 14.996094 52.238281 14.71875 51.097656 C 14.441406 49.957031 14.246094 48.902344 14.160156 47.902344 C 14.050781 46.902344 14.023438 46.070312 14.023438 45.457031 C 14.023438 44.820312 14.050781 44.238281 14.105469 43.707031 C 14.160156 43.179688 14.246094 42.679688 14.382812 42.234375 C 14.523438 41.765625 14.691406 41.375 14.882812 41.015625 C 15.078125 40.652344 15.300781 40.375 15.523438 40.152344 C 15.746094 39.929688 15.96875 39.734375 16.191406 39.570312 C 16.410156 39.402344 16.746094 39.207031 17.191406 38.984375 C 17.632812 38.765625 18.328125 38.484375 19.21875 38.179688 C 20.105469 37.875 21.132812 37.570312 22.21875 37.292969 C 23.328125 36.984375 24.441406 36.734375 25.578125 36.515625 C 26.71875 36.292969 27.800781 36.125 28.828125 35.984375 C 29.855469 35.847656 30.71875 35.765625 31.46875 35.765625 Z M 75.054688 36.984375 C 75.636719 37.015625 76.109375 37.070312 76.414062 37.152344 C 76.746094 37.234375 77.023438 37.320312 77.21875 37.429688 C 77.441406 37.542969 77.691406 37.707031 78.023438 37.984375 C 78.359375 38.265625 78.609375 38.570312 78.832031 38.929688 C 79.054688 39.292969 79.191406 39.597656 79.273438 39.902344 C 79.359375 40.207031 79.441406 40.542969 79.496094 40.875 C 79.554688 41.207031 79.554688 41.652344 79.527344 42.152344 C 79.496094 42.652344 79.386719 43.265625 79.191406 43.957031 C 78.996094 44.652344 78.746094 45.320312 78.414062 45.929688 C 78.082031 46.570312 77.664062 47.265625 77.109375 48.015625 C 76.582031 48.792969 75.886719 49.652344 75.023438 50.625 C 74.164062 51.625 73.332031 52.515625 72.46875 53.347656 C 71.609375 54.179688 71.136719 54.597656 71.109375 54.625 C 71.082031 54.652344 70.996094 54.679688 70.914062 54.765625 C 70.832031 54.847656 70.582031 55.042969 70.136719 55.375 C 69.691406 55.679688 69.191406 55.988281 68.609375 56.265625 C 68.023438 56.542969 67.554688 56.738281 67.136719 56.820312 C 66.71875 56.902344 66.273438 56.960938 65.773438 56.960938 C 65.273438 56.960938 64.914062 56.929688 64.636719 56.875 C 64.386719 56.820312 64.050781 56.710938 63.664062 56.542969 C 63.273438 56.375 63.082031 56.292969 63.082031 56.265625 C 63.082031 56.238281 62.996094 56.179688 62.859375 56.125 C 62.71875 56.070312 62.582031 55.960938 62.46875 55.847656 C 62.359375 55.738281 62.21875 55.570312 62.050781 55.375 C 61.914062 55.179688 61.800781 55.070312 61.773438 55.070312 C 61.71875 55.042969 61.71875 55.042969 61.71875 54.988281 C 61.71875 54.957031 61.664062 54.847656 61.523438 54.707031 C 61.386719 54.570312 61.332031 54.457031 61.300781 54.347656 C 61.273438 54.265625 61.246094 54.207031 61.21875 54.207031 C 61.191406 54.207031 61.164062 54.152344 61.109375 54.015625 C 61.082031 53.902344 61.332031 53.652344 61.914062 53.320312 C 62.496094 52.988281 63.082031 52.570312 63.664062 52.097656 C 64.246094 51.625 64.941406 51.015625 65.691406 50.207031 C 66.46875 49.429688 66.859375 49.015625 66.886719 48.957031 C 66.914062 48.902344 66.941406 48.847656 66.996094 48.847656 C 67.050781 48.820312 67.246094 48.597656 67.554688 48.152344 C 67.886719 47.707031 68.054688 47.515625 68.082031 47.515625 C 68.109375 47.515625 68.359375 47.179688 68.832031 46.515625 C 69.304688 45.847656 69.554688 45.457031 69.609375 45.347656 C 69.636719 45.238281 69.691406 45.152344 69.746094 45.125 C 69.804688 45.097656 70.136719 44.542969 70.691406 43.484375 C 71.273438 42.429688 71.804688 41.347656 72.273438 40.234375 C 72.746094 39.125 73.054688 38.320312 73.21875 37.820312 C 73.359375 37.320312 73.582031 37.042969 73.804688 36.957031 C 74.082031 36.984375 74.46875 36.957031 75.054688 36.984375 Z M 37.078125 50.265625 C 36.855469 50.347656 36.71875 50.429688 36.605469 50.542969 C 36.523438 50.652344 36.441406 50.765625 36.386719 50.902344 C 36.328125 51.015625 36.300781 51.179688 36.300781 51.347656 C 36.300781 51.515625 36.328125 51.652344 36.386719 51.792969 C 36.441406 51.902344 36.523438 52.042969 36.664062 52.179688 C 36.773438 52.320312 37.023438 52.488281 37.355469 52.707031 C 37.691406 52.929688 37.996094 53.152344 38.300781 53.429688 C 38.605469 53.679688 38.886719 53.957031 39.164062 54.238281 C 39.414062 54.515625 39.636719 54.738281 39.746094 54.929688 C 39.855469 55.125 39.96875 55.207031 39.996094 55.238281 C 40.023438 55.265625 40.164062 55.402344 40.386719 55.710938 C 40.605469 56.015625 40.828125 56.347656 41.023438 56.738281 C 41.246094 57.125 41.355469 57.292969 41.386719 57.292969 C 41.414062 57.292969 41.578125 57.597656 41.886719 58.179688 C 42.191406 58.792969 42.46875 59.347656 42.691406 59.902344 C 42.941406 60.460938 43.136719 61.070312 43.328125 61.738281 C 43.523438 62.402344 43.664062 62.820312 43.746094 62.988281 C 43.828125 63.152344 43.96875 63.292969 44.191406 63.429688 C 44.414062 63.570312 44.578125 63.625 44.773438 63.625 C 44.96875 63.625 45.109375 63.597656 45.21875 63.570312 C 45.328125 63.542969 45.441406 63.460938 45.578125 63.320312 C 45.71875 63.179688 45.800781 63.097656 45.859375 63.015625 C 45.886719 62.929688 45.941406 62.765625 45.941406 62.515625 C 45.941406 62.265625 45.800781 61.652344 45.46875 60.738281 C 45.164062 59.792969 44.746094 58.792969 44.21875 57.738281 C 43.71875 56.679688 43.164062 55.738281 42.636719 54.929688 C 42.105469 54.125 41.800781 53.707031 41.773438 53.707031 C 41.71875 53.679688 41.605469 53.542969 41.386719 53.265625 C 41.164062 52.988281 40.914062 52.679688 40.636719 52.402344 C 40.355469 52.125 40.078125 51.875 39.800781 51.679688 C 39.523438 51.488281 39.386719 51.347656 39.386719 51.320312 C 39.386719 51.292969 39.21875 51.179688 38.914062 50.988281 C 38.605469 50.792969 38.414062 50.652344 38.328125 50.570312 C 38.246094 50.488281 38.136719 50.402344 37.996094 50.347656 C 37.855469 50.265625 37.71875 50.238281 37.578125 50.238281 C 37.46875 50.152344 37.300781 50.179688 37.078125 50.265625 Z M 37.078125 50.265625 " fill-opacity="1" fill-rule="nonzero"/></g></svg>