<svg xmlns="http://www.w3.org/2000/svg" xmlns:xlink="http://www.w3.org/1999/xlink" width="125" zoomAndPan="magnify" viewBox="0 0 93.75 93.749997" height="125" preserveAspectRatio="xMidYMid meet" version="1.0"><defs><clipPath id="a37ede2cf9"><path d="M 0 0 L 93.5 0 L 93.5 93.5 L 0 93.5 Z M 0 0 " clip-rule="nonzero"/></clipPath><clipPath id="1cf0f29b08"><path d="M 21.597656 9.351562 L 71.714844 9.351562 L 71.714844 84.152344 L 21.597656 84.152344 Z M 21.597656 9.351562 " clip-rule="nonzero"/></clipPath></defs><g clip-path="url(#a37ede2cf9)"><path fill="#ffffff" d="M 46.75 93.5 C 20.921875 93.5 0 72.433594 0 46.75 C 0 21.066406 20.921875 0 46.75 0 C 72.578125 0 93.5 20.921875 93.5 46.75 C 93.5 72.578125 72.433594 93.5 46.75 93.5 Z M 46.75 2.886719 C 22.507812 2.886719 2.886719 22.507812 2.886719 46.75 C 2.886719 70.992188 22.507812 90.613281 46.75 90.613281 C 70.992188 90.613281 90.613281 70.992188 90.613281 46.75 C 90.613281 22.507812 70.847656 2.886719 46.75 2.886719 Z M 46.75 2.886719 " fill-opacity="1" fill-rule="nonzero"/></g><g clip-path="url(#1cf0f29b08)"><path fill="#ffffff" d="M 31.398438 9.457031 C 31.003906 9.535156 30.6875 9.613281 30.421875 9.71875 C 30.183594 9.824219 29.84375 9.984375 29.421875 10.21875 C 29 10.457031 28.628906 10.71875 28.339844 10.957031 C 28.050781 11.195312 27.785156 11.457031 27.601562 11.695312 C 27.417969 11.90625 27.3125 12.066406 27.3125 12.117188 C 27.285156 12.171875 27.285156 12.195312 27.257812 12.195312 C 27.234375 12.195312 27.128906 12.355469 26.941406 12.699219 C 26.757812 13.039062 26.574219 13.433594 26.417969 13.882812 C 26.230469 14.359375 26.125 14.753906 26.046875 15.097656 C 25.96875 15.464844 25.890625 16.042969 25.835938 16.886719 C 25.757812 17.730469 25.757812 18.574219 25.785156 19.472656 C 25.835938 20.367188 25.890625 21.132812 25.96875 21.816406 C 26.046875 22.476562 26.179688 23.34375 26.363281 24.398438 C 26.546875 25.453125 27.046875 27.667969 27.839844 31.015625 C 28.628906 34.363281 29.367188 37.289062 30.078125 39.765625 C 30.421875 41.003906 30.792969 42.21875 31.132812 43.457031 C 30.921875 43.457031 30.710938 43.480469 30.5 43.480469 C 30.078125 43.507812 29.605469 43.5625 29.105469 43.640625 C 28.605469 43.746094 28.128906 43.851562 27.734375 43.984375 C 27.339844 44.113281 26.941406 44.300781 26.523438 44.511719 C 26.125 44.722656 25.914062 44.851562 25.914062 44.851562 C 25.914062 44.878906 25.730469 45.011719 25.386719 45.246094 C 25.046875 45.484375 24.730469 45.75 24.4375 46.066406 C 24.148438 46.382812 23.914062 46.671875 23.753906 46.933594 C 23.597656 47.226562 23.492188 47.355469 23.464844 47.355469 C 23.4375 47.355469 23.304688 47.566406 23.09375 47.988281 C 22.882812 48.410156 22.699219 48.804688 22.566406 49.203125 C 22.4375 49.597656 22.355469 49.808594 22.332031 49.808594 C 22.304688 49.835938 22.226562 50.097656 22.09375 50.597656 C 21.960938 51.125 21.855469 51.707031 21.777344 52.363281 C 21.699219 53.023438 21.644531 53.65625 21.644531 54.316406 C 21.644531 54.949219 21.722656 55.738281 21.855469 56.714844 C 21.988281 57.6875 22.121094 58.375 22.226562 58.796875 C 22.355469 59.242188 22.515625 59.769531 22.753906 60.429688 C 22.988281 61.0625 23.226562 61.617188 23.410156 62.039062 C 23.597656 62.457031 23.753906 62.695312 23.78125 62.722656 C 23.808594 62.75 23.964844 62.984375 24.203125 63.40625 C 24.4375 63.828125 24.570312 64.066406 24.597656 64.066406 C 24.597656 64.066406 24.625 64.066406 24.625 64.066406 C 24.625 64.09375 24.625 64.09375 24.625 64.121094 C 24.625 64.171875 24.753906 64.355469 24.992188 64.726562 C 25.230469 65.09375 25.46875 65.359375 25.625 65.542969 C 25.785156 65.726562 25.890625 65.859375 25.890625 65.910156 C 25.914062 65.964844 26.125 66.253906 26.574219 66.78125 C 27.023438 67.308594 27.601562 67.941406 28.339844 68.679688 C 29.078125 69.417969 29.605469 69.945312 29.972656 70.261719 C 30.316406 70.578125 30.660156 70.839844 30.949219 71.050781 C 31.238281 71.261719 31.398438 71.394531 31.398438 71.421875 C 31.398438 71.445312 31.425781 71.472656 31.476562 71.472656 C 31.527344 71.5 31.609375 71.550781 31.6875 71.65625 C 31.765625 71.761719 32.03125 71.949219 32.398438 72.210938 C 32.792969 72.472656 32.980469 72.660156 33.003906 72.789062 C 33.03125 72.921875 33.058594 73.34375 33.058594 74.109375 C 33.058594 74.871094 33.03125 75.609375 32.980469 76.347656 C 32.925781 77.085938 32.847656 77.773438 32.769531 78.429688 C 32.664062 79.089844 32.664062 79.511719 32.714844 79.671875 C 32.769531 79.828125 32.980469 80.039062 33.320312 80.277344 C 33.664062 80.511719 34.347656 80.855469 35.351562 81.277344 C 36.351562 81.699219 37.273438 82.070312 38.144531 82.359375 C 39.015625 82.621094 40.226562 82.9375 41.859375 83.28125 C 43.496094 83.625 44.890625 83.859375 46.050781 83.964844 C 47.210938 84.070312 48.34375 84.152344 49.425781 84.152344 C 50.507812 84.152344 51.558594 84.097656 52.5625 84.019531 C 53.5625 83.914062 54.644531 83.78125 55.75 83.570312 C 56.859375 83.359375 57.832031 83.148438 58.703125 82.910156 C 59.574219 82.675781 60.230469 82.464844 60.679688 82.304688 C 61.128906 82.148438 61.785156 81.859375 62.605469 81.460938 C 63.421875 81.066406 63.921875 80.804688 64.105469 80.644531 C 64.289062 80.488281 64.421875 80.355469 64.476562 80.25 C 64.554688 80.117188 64.582031 79.984375 64.582031 79.800781 C 64.605469 79.617188 64.554688 79.300781 64.449219 78.851562 C 64.34375 78.40625 64.238281 77.796875 64.160156 77.0625 C 64.054688 76.296875 64 75.558594 64 74.847656 C 64 74.109375 64 73.6875 64.027344 73.554688 C 64.054688 73.421875 64.238281 73.1875 64.632812 72.816406 C 65.003906 72.472656 65.320312 72.132812 65.609375 71.789062 C 65.898438 71.445312 66.1875 71.050781 66.53125 70.550781 C 66.875 70.050781 67.191406 69.523438 67.480469 68.996094 C 67.769531 68.441406 68.007812 67.914062 68.191406 67.414062 C 68.375 66.886719 68.535156 66.359375 68.664062 65.804688 C 68.796875 65.253906 68.902344 64.621094 68.980469 63.910156 C 69.0625 63.195312 69.085938 62.644531 69.035156 62.25 C 69.007812 61.851562 69.140625 61.484375 69.507812 61.167969 C 69.878906 60.851562 70.167969 60.535156 70.40625 60.21875 C 70.644531 59.902344 70.878906 59.535156 71.117188 59.058594 C 71.355469 58.585938 71.539062 58.109375 71.644531 57.660156 C 71.75 57.1875 71.828125 56.738281 71.855469 56.265625 C 71.855469 55.789062 71.855469 55.394531 71.800781 55.105469 C 71.777344 54.816406 71.695312 54.527344 71.589844 54.234375 C 71.511719 53.945312 71.378906 53.628906 71.222656 53.339844 C 71.0625 53.023438 70.878906 52.734375 70.722656 52.46875 C 70.5625 52.207031 70.351562 51.96875 70.167969 51.785156 C 69.984375 51.574219 69.667969 51.308594 69.191406 50.96875 C 68.71875 50.625 68.351562 50.386719 68.085938 50.28125 C 67.953125 50.230469 67.796875 50.175781 67.664062 50.097656 C 67.742188 49.992188 67.824219 49.886719 67.875 49.753906 C 68.007812 49.519531 68.113281 49.414062 68.140625 49.414062 C 68.164062 49.414062 68.269531 49.226562 68.480469 48.886719 C 68.691406 48.542969 68.851562 48.121094 69.007812 47.671875 C 69.167969 47.226562 69.296875 46.777344 69.378906 46.382812 C 69.457031 45.960938 69.507812 45.539062 69.507812 45.140625 C 69.507812 44.746094 69.507812 44.378906 69.484375 44.035156 C 69.429688 43.691406 69.378906 43.375 69.324219 43.113281 C 69.246094 42.824219 69.140625 42.453125 68.957031 41.953125 C 68.769531 41.453125 68.535156 41.003906 68.246094 40.582031 C 67.953125 40.160156 67.636719 39.820312 67.347656 39.527344 C 67.058594 39.238281 66.714844 39 66.425781 38.789062 C 66.136719 38.578125 65.792969 38.421875 65.425781 38.261719 C 65.082031 38.105469 64.710938 37.972656 64.34375 37.867188 C 63.972656 37.761719 63.632812 37.683594 63.34375 37.632812 C 63.050781 37.578125 62.710938 37.550781 62.367188 37.527344 C 62.207031 37.527344 62.023438 37.527344 61.867188 37.5 C 62.761719 35.96875 63.65625 34.46875 64.554688 32.9375 C 66.347656 29.910156 67.53125 27.851562 68.085938 26.773438 C 68.640625 25.691406 68.902344 25.113281 68.902344 25.085938 C 68.902344 25.03125 69.113281 24.558594 69.507812 23.6875 C 69.90625 22.820312 70.222656 22.105469 70.40625 21.527344 C 70.617188 20.972656 70.722656 20.65625 70.75 20.65625 C 70.773438 20.65625 70.828125 20.523438 70.855469 20.316406 C 70.90625 20.078125 70.960938 19.972656 70.984375 19.945312 C 71.011719 19.945312 71.117188 19.523438 71.328125 18.734375 C 71.539062 17.941406 71.671875 17.203125 71.695312 16.546875 C 71.722656 15.886719 71.722656 15.464844 71.695312 15.253906 C 71.671875 15.042969 71.589844 14.753906 71.484375 14.410156 C 71.378906 14.042969 71.195312 13.644531 70.933594 13.171875 C 70.667969 12.699219 70.351562 12.277344 70.011719 11.878906 C 69.640625 11.484375 69.191406 11.117188 68.613281 10.746094 C 68.035156 10.378906 67.636719 10.140625 67.375 10.035156 C 67.136719 9.929688 66.898438 9.851562 66.664062 9.796875 C 66.453125 9.746094 66.320312 9.691406 66.320312 9.691406 C 66.292969 9.667969 66.058594 9.613281 65.609375 9.5625 C 65.160156 9.507812 64.6875 9.480469 64.210938 9.535156 C 63.738281 9.585938 63.289062 9.71875 62.839844 9.902344 C 62.394531 10.089844 61.917969 10.351562 61.445312 10.71875 C 60.96875 11.089844 60.546875 11.433594 60.207031 11.800781 C 59.863281 12.171875 59.441406 12.671875 58.964844 13.25 C 58.492188 13.855469 57.648438 15.121094 56.410156 17.046875 C 55.171875 18.96875 54.566406 19.972656 54.539062 20.023438 C 54.511719 20.078125 54.089844 20.839844 53.246094 22.316406 C 52.402344 23.792969 51.902344 24.636719 51.796875 24.902344 C 51.691406 25.164062 51.585938 25.375 51.453125 25.53125 C 51.324219 25.71875 51.085938 26.191406 50.691406 27.007812 C 50.296875 27.800781 50.058594 28.273438 49.980469 28.378906 C 49.898438 28.484375 49.347656 29.644531 48.292969 31.886719 C 47.765625 32.992188 47.238281 34.097656 46.738281 35.230469 C 46.632812 34.96875 46.527344 34.679688 46.421875 34.414062 C 46.210938 33.886719 46.078125 33.519531 46.050781 33.335938 C 46 33.148438 45.710938 32.253906 45.15625 30.671875 C 44.601562 29.089844 43.941406 27.035156 43.179688 24.503906 C 42.414062 22 41.808594 20.183594 41.386719 19.050781 C 40.964844 17.917969 40.515625 16.863281 40.015625 15.886719 C 39.515625 14.910156 39.015625 14.015625 38.488281 13.25 C 37.960938 12.488281 37.589844 11.960938 37.355469 11.695312 C 37.144531 11.433594 36.878906 11.195312 36.5625 10.929688 C 36.273438 10.695312 36.089844 10.5625 36.035156 10.535156 C 35.984375 10.507812 35.957031 10.507812 35.957031 10.484375 C 35.957031 10.457031 35.800781 10.351562 35.484375 10.195312 C 35.167969 10.035156 34.851562 9.878906 34.507812 9.773438 C 34.164062 9.667969 33.902344 9.585938 33.636719 9.5625 C 33.347656 9.375 33.03125 9.351562 32.609375 9.351562 C 32.214844 9.351562 31.792969 9.375 31.398438 9.457031 Z M 32.558594 11.195312 C 32.898438 11.195312 33.191406 11.222656 33.402344 11.246094 C 33.613281 11.300781 33.875 11.378906 34.164062 11.484375 C 34.453125 11.589844 34.71875 11.75 34.929688 11.90625 C 35.167969 12.066406 35.484375 12.382812 35.90625 12.828125 C 36.328125 13.277344 36.746094 13.855469 37.167969 14.542969 C 37.589844 15.203125 38.011719 15.992188 38.460938 16.914062 C 38.882812 17.835938 39.277344 18.734375 39.621094 19.628906 C 39.964844 20.550781 40.148438 21.050781 40.148438 21.183594 C 40.148438 21.316406 40.332031 21.871094 40.675781 22.871094 C 41.019531 23.871094 41.492188 25.402344 42.125 27.457031 C 42.757812 29.511719 43.335938 31.332031 43.863281 32.886719 C 44.390625 34.441406 44.839844 35.601562 45.15625 36.367188 C 45.472656 37.128906 45.710938 37.605469 45.839844 37.761719 C 45.945312 37.921875 46.078125 38.027344 46.183594 38.078125 C 46.289062 38.132812 46.445312 38.15625 46.632812 38.132812 C 46.816406 38.105469 47 38.050781 47.210938 37.945312 C 47.421875 37.839844 47.554688 37.734375 47.605469 37.683594 C 47.6875 37.605469 47.871094 37.128906 48.214844 36.285156 C 48.554688 35.441406 48.949219 34.519531 49.398438 33.597656 C 49.847656 32.648438 50.085938 32.148438 50.085938 32.070312 C 50.085938 31.992188 50.480469 31.199219 51.246094 29.644531 C 52.007812 28.117188 52.71875 26.773438 53.40625 25.585938 C 54.089844 24.398438 54.433594 23.742188 54.484375 23.636719 C 54.539062 23.53125 55.09375 22.554688 56.171875 20.734375 C 57.253906 18.917969 57.992188 17.679688 58.441406 17.046875 C 58.886719 16.414062 59.070312 16.070312 59.125 16.070312 C 59.152344 16.070312 59.363281 15.78125 59.757812 15.175781 C 60.152344 14.570312 60.601562 14.015625 61.074219 13.460938 C 61.550781 12.910156 61.996094 12.488281 62.394531 12.171875 C 62.789062 11.855469 63.105469 11.667969 63.34375 11.5625 C 63.578125 11.457031 63.761719 11.378906 63.949219 11.351562 C 64.105469 11.300781 64.394531 11.300781 64.816406 11.300781 C 65.238281 11.328125 65.660156 11.40625 66.082031 11.539062 C 66.503906 11.667969 66.898438 11.878906 67.296875 12.089844 C 67.691406 12.328125 68.035156 12.566406 68.324219 12.855469 C 68.613281 13.144531 68.875 13.460938 69.085938 13.804688 C 69.296875 14.148438 69.429688 14.410156 69.507812 14.570312 C 69.589844 14.726562 69.640625 14.992188 69.695312 15.308594 C 69.746094 15.621094 69.773438 15.992188 69.71875 16.441406 C 69.667969 16.886719 69.613281 17.414062 69.457031 17.996094 C 69.324219 18.601562 69.21875 18.890625 69.191406 18.917969 C 69.167969 18.917969 69.085938 19.207031 68.902344 19.734375 C 68.71875 20.261719 68.5625 20.816406 68.324219 21.367188 C 68.113281 21.949219 67.769531 22.660156 67.320312 23.554688 C 66.898438 24.425781 66.664062 24.925781 66.636719 25.03125 C 66.609375 25.136719 66.371094 25.613281 65.925781 26.480469 C 65.476562 27.351562 64.34375 29.277344 62.550781 32.308594 C 60.734375 35.335938 59.757812 36.972656 59.574219 37.183594 C 59.386719 37.394531 59.230469 37.527344 59.070312 37.527344 C 58.914062 37.527344 58.675781 37.605469 58.335938 37.710938 C 57.992188 37.816406 57.515625 38 56.9375 38.261719 C 56.355469 38.527344 56.066406 38.683594 56.042969 38.710938 C 56.015625 38.738281 55.960938 38.789062 55.855469 38.816406 C 55.777344 38.84375 55.699219 38.871094 55.671875 38.921875 C 55.644531 38.976562 55.433594 39.105469 55.011719 39.316406 C 54.589844 39.527344 54.40625 39.660156 54.40625 39.6875 C 54.40625 39.714844 54.378906 39.738281 54.300781 39.738281 C 54.222656 39.738281 53.90625 39.949219 53.328125 40.371094 C 52.746094 40.792969 52.085938 41.292969 51.324219 41.925781 C 50.558594 42.558594 50.164062 42.929688 50.085938 43.007812 C 50.003906 43.085938 49.792969 43.324219 49.371094 43.691406 C 48.949219 44.0625 48.609375 44.457031 48.265625 44.851562 C 47.921875 45.246094 47.738281 45.457031 47.660156 45.511719 C 47.582031 45.5625 47.449219 45.75 47.210938 46.089844 C 46.972656 46.433594 46.683594 46.511719 46.367188 46.300781 C 46.050781 46.089844 45.710938 45.933594 45.367188 45.773438 C 45.023438 45.617188 44.496094 45.433594 43.785156 45.246094 C 43.074219 45.039062 42.152344 44.851562 40.992188 44.640625 C 39.859375 44.429688 38.222656 44.195312 36.089844 43.902344 C 33.953125 43.613281 32.898438 43.429688 32.898438 43.324219 C 32.898438 43.21875 32.792969 42.824219 32.558594 42.164062 C 32.320312 41.503906 31.949219 40.214844 31.449219 38.289062 C 30.921875 36.367188 30.34375 34.074219 29.683594 31.359375 C 29.027344 28.644531 28.628906 26.375 28.3125 24.636719 C 27.996094 22.871094 27.785156 21.421875 27.707031 20.261719 C 27.628906 19.101562 27.574219 18.230469 27.601562 17.625 C 27.628906 17.019531 27.679688 16.546875 27.734375 16.148438 C 27.785156 15.753906 27.917969 15.332031 28.050781 14.859375 C 28.207031 14.382812 28.367188 13.988281 28.550781 13.644531 C 28.734375 13.304688 28.972656 12.988281 29.234375 12.699219 C 29.5 12.40625 29.710938 12.195312 29.894531 12.089844 C 30.078125 11.960938 30.316406 11.828125 30.632812 11.667969 C 30.949219 11.511719 31.292969 11.40625 31.582031 11.300781 C 31.898438 11.246094 32.214844 11.195312 32.558594 11.195312 Z M 62.234375 39.265625 C 62.578125 39.292969 62.921875 39.34375 63.289062 39.421875 C 63.65625 39.503906 63.972656 39.582031 64.265625 39.6875 C 64.554688 39.792969 64.816406 39.898438 65.003906 40.03125 C 65.214844 40.136719 65.398438 40.265625 65.554688 40.398438 C 65.714844 40.503906 65.925781 40.714844 66.1875 41.003906 C 66.453125 41.292969 66.6875 41.609375 66.875 41.980469 C 67.058594 42.324219 67.214844 42.769531 67.347656 43.269531 C 67.480469 43.773438 67.558594 44.167969 67.558594 44.40625 C 67.585938 44.667969 67.558594 44.984375 67.53125 45.351562 C 67.480469 45.722656 67.453125 46.039062 67.402344 46.25 C 67.347656 46.460938 67.242188 46.75 67.085938 47.144531 C 66.925781 47.515625 66.664062 47.960938 66.320312 48.464844 C 65.976562 48.964844 65.660156 49.332031 65.425781 49.570312 C 65.1875 49.808594 64.871094 50.070312 64.5 50.335938 C 64.132812 50.625 63.84375 50.808594 63.632812 50.941406 C 63.421875 51.074219 63.289062 51.152344 63.238281 51.152344 C 63.183594 51.152344 63.132812 51.179688 63.050781 51.257812 C 62.972656 51.335938 62.710938 51.46875 62.183594 51.730469 C 61.679688 51.996094 60.652344 52.390625 59.152344 52.96875 C 57.648438 53.523438 56.4375 53.972656 55.515625 54.234375 C 54.589844 54.5 53.851562 54.710938 53.300781 54.816406 C 52.746094 54.921875 52.21875 54.972656 51.71875 54.972656 C 51.21875 54.972656 50.769531 54.921875 50.375 54.84375 C 49.980469 54.738281 49.6875 54.65625 49.476562 54.550781 C 49.265625 54.445312 49.054688 54.339844 48.871094 54.210938 C 48.6875 54.078125 48.554688 53.972656 48.503906 53.917969 C 48.449219 53.867188 48.476562 53.761719 48.609375 53.601562 C 48.742188 53.445312 48.84375 53.234375 49.003906 52.917969 C 49.160156 52.628906 49.265625 52.207031 49.347656 51.679688 C 49.453125 51.152344 49.476562 50.78125 49.476562 50.597656 C 49.453125 50.386719 49.425781 50.148438 49.347656 49.835938 C 49.265625 49.519531 49.160156 49.203125 49.03125 48.9375 C 48.898438 48.648438 48.742188 48.382812 48.609375 48.171875 C 48.449219 47.960938 48.582031 47.59375 48.976562 47.066406 C 49.398438 46.539062 50.109375 45.773438 51.140625 44.800781 C 52.167969 43.796875 53.035156 43.058594 53.722656 42.558594 C 54.40625 42.058594 54.75 41.796875 54.75 41.769531 C 54.75 41.769531 54.75 41.742188 54.75 41.742188 C 54.777344 41.742188 54.777344 41.742188 54.800781 41.742188 C 54.855469 41.742188 55.09375 41.585938 55.566406 41.242188 C 56.042969 40.925781 56.515625 40.636719 56.964844 40.398438 C 57.410156 40.160156 57.753906 40.003906 58.019531 39.898438 C 58.253906 39.820312 58.753906 39.6875 59.441406 39.554688 C 60.125 39.398438 60.707031 39.316406 61.15625 39.292969 C 61.496094 39.238281 61.890625 39.238281 62.234375 39.265625 Z M 32.742188 45.378906 C 33.875 45.457031 35.324219 45.589844 37.011719 45.828125 C 38.699219 46.066406 39.964844 46.25 40.726562 46.40625 C 41.519531 46.566406 42.308594 46.75 43.152344 46.988281 C 43.996094 47.226562 44.574219 47.4375 44.917969 47.59375 C 45.261719 47.75 45.578125 47.960938 45.921875 48.199219 C 46.261719 48.4375 46.527344 48.699219 46.738281 48.964844 C 46.972656 49.226562 47.132812 49.464844 47.238281 49.648438 C 47.34375 49.859375 47.421875 50.046875 47.476562 50.230469 C 47.527344 50.414062 47.554688 50.625 47.554688 50.886719 C 47.554688 51.152344 47.527344 51.390625 47.476562 51.625 C 47.421875 51.835938 47.34375 52.046875 47.265625 52.234375 C 47.160156 52.390625 47.054688 52.574219 46.949219 52.734375 C 46.84375 52.890625 46.632812 53.101562 46.34375 53.367188 C 46.078125 53.628906 45.761719 53.867188 45.445312 54.078125 C 45.101562 54.289062 44.8125 54.472656 44.496094 54.605469 C 44.179688 54.761719 43.863281 54.894531 43.496094 55.027344 C 43.125 55.15625 42.730469 55.261719 42.28125 55.394531 C 41.835938 55.5 41.230469 55.578125 40.4375 55.660156 C 39.648438 55.738281 39.09375 55.738281 38.726562 55.710938 C 38.382812 55.683594 38.039062 55.632812 37.75 55.554688 C 37.460938 55.472656 37.25 55.449219 37.144531 55.449219 C 37.039062 55.472656 36.90625 55.5 36.800781 55.554688 C 36.695312 55.632812 36.589844 55.710938 36.511719 55.84375 C 36.433594 55.949219 36.378906 56.132812 36.378906 56.316406 C 36.378906 56.527344 36.378906 56.660156 36.40625 56.738281 C 36.433594 56.820312 36.511719 56.925781 36.667969 57.054688 C 36.828125 57.1875 37.144531 57.320312 37.617188 57.425781 C 38.09375 57.53125 38.566406 57.582031 38.988281 57.609375 C 39.410156 57.636719 39.988281 57.582031 40.703125 57.53125 C 41.414062 57.476562 42.097656 57.371094 42.730469 57.214844 C 43.363281 57.054688 43.839844 56.925781 44.179688 56.820312 C 44.523438 56.714844 44.867188 56.554688 45.261719 56.371094 C 45.65625 56.1875 46.050781 55.949219 46.472656 55.683594 C 46.894531 55.421875 47.265625 55.394531 47.605469 55.660156 C 47.949219 55.921875 48.265625 56.132812 48.554688 56.265625 C 48.84375 56.421875 49.109375 56.503906 49.320312 56.582031 C 49.425781 56.609375 49.558594 56.660156 49.664062 56.6875 C 49.582031 56.84375 49.53125 57.003906 49.453125 57.136719 C 49.320312 57.425781 49.214844 57.820312 49.160156 58.292969 C 49.109375 58.769531 49.082031 59.242188 49.109375 59.691406 C 49.136719 60.140625 49.214844 60.613281 49.320312 61.113281 C 49.425781 61.617188 49.609375 62.089844 49.820312 62.5625 C 50.058594 63.039062 50.296875 63.433594 50.585938 63.804688 C 50.875 64.171875 51.140625 64.488281 51.402344 64.726562 C 51.664062 64.960938 51.980469 65.199219 52.324219 65.382812 C 52.695312 65.59375 53.0625 65.78125 53.457031 65.910156 C 53.851562 66.042969 54.300781 66.175781 54.777344 66.253906 C 55.277344 66.359375 55.726562 66.414062 56.148438 66.414062 C 56.566406 66.414062 57.148438 66.386719 57.886719 66.308594 C 58.625 66.226562 59.414062 66.070312 60.257812 65.886719 C 61.101562 65.675781 61.785156 65.464844 62.3125 65.277344 C 62.839844 65.09375 63.472656 64.832031 64.183594 64.515625 C 64.898438 64.199219 65.582031 63.828125 66.214844 63.460938 C 66.53125 63.277344 66.847656 63.089844 67.164062 62.90625 C 67.136719 63.195312 67.085938 63.488281 67.058594 63.777344 C 66.980469 64.355469 66.847656 65.015625 66.664062 65.726562 C 66.476562 66.4375 66.265625 67.046875 66.058594 67.492188 C 65.847656 67.941406 65.582031 68.441406 65.214844 69.023438 C 64.84375 69.601562 64.527344 70.050781 64.238281 70.390625 C 63.949219 70.734375 63.554688 71.183594 62.972656 71.710938 C 62.417969 72.238281 61.839844 72.710938 61.285156 73.054688 C 60.734375 73.421875 60.152344 73.714844 59.574219 73.949219 C 58.992188 74.1875 58.652344 74.347656 58.519531 74.453125 C 58.414062 74.53125 58.308594 74.636719 58.253906 74.742188 C 58.203125 74.847656 58.175781 74.953125 58.148438 75.082031 C 58.125 75.1875 58.148438 75.347656 58.203125 75.503906 C 58.253906 75.664062 58.335938 75.796875 58.464844 75.902344 C 58.570312 76.007812 58.753906 76.085938 58.941406 76.113281 C 59.152344 76.136719 59.546875 76.03125 60.125 75.769531 C 60.734375 75.53125 61.179688 75.292969 61.550781 75.109375 C 61.734375 75.003906 61.917969 74.898438 62.078125 74.820312 C 62.101562 75.269531 62.15625 75.714844 62.183594 76.191406 C 62.261719 77.113281 62.339844 77.824219 62.445312 78.378906 C 62.550781 78.933594 62.605469 79.25 62.550781 79.328125 C 62.523438 79.40625 62.050781 79.644531 61.15625 80.039062 C 60.257812 80.433594 59.441406 80.722656 58.753906 80.960938 C 58.070312 81.171875 57.386719 81.355469 56.726562 81.515625 C 56.066406 81.671875 55.144531 81.832031 53.933594 82.015625 C 52.71875 82.171875 51.613281 82.277344 50.613281 82.332031 C 49.582031 82.359375 48.6875 82.359375 47.871094 82.332031 C 47.054688 82.304688 46.367188 82.226562 45.789062 82.171875 C 45.207031 82.121094 44.234375 81.9375 42.890625 81.671875 C 41.542969 81.410156 40.515625 81.171875 39.832031 80.988281 C 39.144531 80.804688 38.433594 80.566406 37.722656 80.328125 C 37.011719 80.089844 36.328125 79.800781 35.640625 79.484375 C 34.957031 79.167969 34.664062 78.5625 34.746094 77.640625 C 34.824219 76.71875 34.875 75.875 34.902344 75.082031 C 34.902344 74.6875 34.902344 74.320312 34.929688 73.925781 C 35.0625 73.976562 35.191406 74.03125 35.324219 74.082031 C 35.589844 74.1875 35.824219 74.242188 36.035156 74.214844 C 36.246094 74.214844 36.40625 74.160156 36.511719 74.109375 C 36.617188 74.054688 36.695312 73.949219 36.773438 73.871094 C 36.851562 73.792969 36.878906 73.6875 36.90625 73.609375 C 36.933594 73.503906 36.933594 73.398438 36.933594 73.238281 C 36.90625 73.082031 36.851562 72.921875 36.722656 72.765625 C 36.589844 72.605469 36.40625 72.472656 36.167969 72.394531 C 35.929688 72.316406 35.667969 72.210938 35.402344 72.054688 C 35.140625 71.894531 34.851562 71.738281 34.535156 71.550781 C 34.21875 71.367188 33.742188 71 33.109375 70.496094 C 32.476562 69.996094 31.714844 69.363281 30.898438 68.601562 C 30.078125 67.835938 29.234375 66.992188 28.417969 66.042969 C 27.601562 65.09375 26.917969 64.25 26.390625 63.460938 C 25.863281 62.667969 25.441406 61.957031 25.125 61.300781 C 24.808594 60.640625 24.519531 59.929688 24.28125 59.164062 C 24.019531 58.398438 23.859375 57.660156 23.726562 56.949219 C 23.597656 56.238281 23.542969 55.5 23.515625 54.738281 C 23.492188 53.972656 23.542969 53.261719 23.621094 52.652344 C 23.703125 52.023438 23.832031 51.363281 24.042969 50.703125 C 24.253906 50.046875 24.492188 49.4375 24.78125 48.9375 C 25.070312 48.4375 25.386719 47.988281 25.730469 47.59375 C 26.074219 47.199219 26.523438 46.855469 26.996094 46.539062 C 27.46875 46.222656 27.945312 46.011719 28.394531 45.855469 C 28.839844 45.695312 29.394531 45.617188 30.054688 45.539062 C 30.6875 45.328125 31.582031 45.328125 32.742188 45.378906 Z M 66.347656 51.519531 C 66.558594 51.546875 66.769531 51.601562 66.980469 51.679688 C 67.191406 51.757812 67.425781 51.890625 67.742188 52.101562 C 68.035156 52.3125 68.296875 52.496094 68.480469 52.679688 C 68.664062 52.863281 68.851562 53.050781 69.007812 53.285156 C 69.167969 53.496094 69.296875 53.707031 69.429688 53.972656 C 69.535156 54.210938 69.667969 54.527344 69.773438 54.894531 C 69.878906 55.261719 69.929688 55.710938 69.90625 56.160156 C 69.878906 56.632812 69.773438 57.109375 69.589844 57.582031 C 69.402344 58.082031 69.167969 58.53125 68.851562 58.925781 C 68.535156 59.324219 68.246094 59.664062 67.929688 59.957031 C 67.613281 60.246094 67.109375 60.585938 66.425781 61.0625 C 65.742188 61.535156 65.003906 61.957031 64.210938 62.355469 C 63.421875 62.75 62.65625 63.089844 61.945312 63.355469 C 61.234375 63.617188 60.441406 63.855469 59.597656 64.066406 C 58.730469 64.277344 57.992188 64.410156 57.304688 64.460938 C 56.621094 64.515625 56.015625 64.488281 55.433594 64.410156 C 54.855469 64.332031 54.433594 64.25 54.167969 64.144531 C 53.90625 64.039062 53.667969 63.933594 53.433594 63.828125 C 53.195312 63.722656 53.011719 63.59375 52.851562 63.488281 C 52.695312 63.382812 52.507812 63.195312 52.296875 62.984375 C 52.085938 62.75 51.851562 62.40625 51.613281 61.90625 C 51.347656 61.40625 51.191406 60.929688 51.085938 60.429688 C 50.980469 59.929688 50.929688 59.535156 50.929688 59.191406 C 50.929688 58.847656 50.953125 58.558594 51.007812 58.292969 C 51.058594 58.03125 51.113281 57.847656 51.140625 57.742188 C 51.164062 57.636719 51.296875 57.476562 51.453125 57.242188 C 51.613281 57.003906 51.824219 56.898438 52.0625 56.898438 C 52.296875 56.898438 52.71875 56.84375 53.351562 56.738281 C 53.984375 56.632812 54.695312 56.449219 55.539062 56.210938 C 56.382812 55.976562 57.359375 55.660156 58.464844 55.261719 C 59.574219 54.867188 60.46875 54.550781 61.15625 54.261719 C 61.839844 53.972656 62.207031 53.8125 62.234375 53.789062 C 62.289062 53.734375 62.3125 53.734375 62.367188 53.734375 C 62.417969 53.734375 62.628906 53.65625 63 53.445312 C 63.367188 53.261719 63.789062 53.023438 64.289062 52.734375 C 64.792969 52.445312 65.1875 52.179688 65.503906 51.917969 C 65.820312 51.652344 66.109375 51.496094 66.347656 51.519531 Z M 44.128906 60.113281 C 43.96875 60.164062 43.863281 60.246094 43.757812 60.324219 C 43.679688 60.429688 43.601562 60.585938 43.546875 60.824219 C 43.523438 61.089844 43.523438 61.273438 43.601562 61.429688 C 43.679688 61.589844 43.757812 61.667969 43.8125 61.722656 C 43.890625 61.773438 44.023438 61.933594 44.234375 62.222656 C 44.445312 62.511719 44.574219 62.667969 44.601562 62.667969 C 44.628906 62.667969 44.707031 62.773438 44.867188 63.011719 C 44.996094 63.25 45.207031 63.699219 45.5 64.304688 C 45.789062 64.9375 45.945312 65.410156 46.027344 65.699219 C 46.105469 65.992188 46.210938 66.4375 46.316406 67.070312 C 46.421875 67.703125 46.472656 68.308594 46.421875 68.890625 C 46.394531 69.496094 46.421875 69.839844 46.472656 69.945312 C 46.550781 70.074219 46.605469 70.15625 46.683594 70.207031 C 46.761719 70.261719 46.84375 70.3125 46.921875 70.339844 C 47.027344 70.390625 47.132812 70.390625 47.289062 70.390625 C 47.449219 70.390625 47.605469 70.367188 47.738281 70.285156 C 47.871094 70.207031 47.976562 70.128906 48.027344 70.074219 C 48.054688 70.023438 48.132812 69.839844 48.214844 69.550781 C 48.292969 69.257812 48.320312 68.8125 48.320312 68.285156 C 48.320312 67.730469 48.265625 67.230469 48.1875 66.753906 C 48.109375 66.28125 48.003906 65.832031 47.898438 65.382812 C 47.792969 64.960938 47.605469 64.460938 47.394531 63.882812 C 47.160156 63.328125 46.894531 62.773438 46.605469 62.273438 C 46.289062 61.773438 45.972656 61.300781 45.605469 60.878906 C 45.234375 60.457031 45.023438 60.21875 44.917969 60.164062 C 44.8125 60.113281 44.707031 60.085938 44.550781 60.058594 C 44.417969 60.035156 44.257812 60.058594 44.128906 60.113281 Z M 44.128906 60.113281 " fill-opacity="1" fill-rule="nonzero"/></g></svg>